<?xml version="1.0" encoding="utf-8" standalone="no"?>
<!DOCTYPE svg PUBLIC "-//W3C//DTD SVG 1.1//EN"
  "http://www.w3.org/Graphics/SVG/1.1/DTD/svg11.dtd">
<svg xmlns:xlink="http://www.w3.org/1999/xlink" width="543.326562pt" height="209.81988pt" viewBox="0 0 543.326562 209.81988" xmlns="http://www.w3.org/2000/svg" version="1.1">
 <metadata>
  <rdf:RDF xmlns:dc="http://purl.org/dc/elements/1.1/" xmlns:cc="http://creativecommons.org/ns#" xmlns:rdf="http://www.w3.org/1999/02/22-rdf-syntax-ns#">
   <cc:Work>
    <dc:type rdf:resource="http://purl.org/dc/dcmitype/StillImage"/>
    <dc:date>2026-09-11T11:19:46.429502</dc:date>
    <dc:format>image/svg+xml</dc:format>
    <dc:creator>
     <cc:Agent>
      <dc:title>Matplotlib v3.9.4, https://matplotlib.org/</dc:title>
     </cc:Agent>
    </dc:creator>
   </cc:Work>
  </rdf:RDF>
 </metadata>
 <defs>
  <style type="text/css">*{stroke-linejoin: round; stroke-linecap: butt}</style>
 </defs>
 <g id="figure_1">
  <g id="patch_1">
   <path d="M 0 209.81988 
L 543.326562 209.81988 
L 543.326562 0 
L 0 0 
z
" style="fill: #ffffff"/>
  </g>
  <g id="axes_1">
   <g id="patch_2">
    <path d="M 65.199187 161.561308 
L 478.127375 161.561308 
L 478.127375 37.767578 
L 65.199187 37.767578 
z
" style="fill: #ffffff"/>
   </g>
   <g id="matplotlib.axis_1">
    <g id="xtick_1">
     <g id="line2d_1">
      <defs>
       <path id="md27890076b" d="M 0 0 
L 0 3.5 
" style="stroke: #000000; stroke-width: 0.8"/>
      </defs>
      <g>
       <use xlink:href="#md27890076b" x="65.199187" y="161.561308" style="stroke: #000000; stroke-width: 0.8"/>
      </g>
     </g>
     <g id="text_1">
      <!-- 0 -->
      <g transform="translate(61.381687 177.679433) scale(0.12 -0.12)">
       <defs>
        <path id="DejaVuSans-30" d="M 2034 4250 
Q 1547 4250 1301 3770 
Q 1056 3291 1056 2328 
Q 1056 1369 1301 889 
Q 1547 409 2034 409 
Q 2525 409 2770 889 
Q 3016 1369 3016 2328 
Q 3016 3291 2770 3770 
Q 2525 4250 2034 4250 
z
M 2034 4750 
Q 2819 4750 3233 4129 
Q 3647 3509 3647 2328 
Q 3647 1150 3233 529 
Q 2819 -91 2034 -91 
Q 1250 -91 836 529 
Q 422 1150 422 2328 
Q 422 3509 836 4129 
Q 1250 4750 2034 4750 
z
" transform="scale(0.015625)"/>
       </defs>
       <use xlink:href="#DejaVuSans-30"/>
      </g>
     </g>
    </g>
    <g id="xtick_2">
     <g id="line2d_2">
      <g>
       <use xlink:href="#md27890076b" x="147.784825" y="161.561308" style="stroke: #000000; stroke-width: 0.8"/>
      </g>
     </g>
     <g id="text_2">
      <!-- 200 -->
      <g transform="translate(136.332325 177.679433) scale(0.12 -0.12)">
       <defs>
        <path id="DejaVuSans-32" d="M 1228 531 
L 3431 531 
L 3431 0 
L 469 0 
L 469 531 
Q 828 903 1448 1529 
Q 2069 2156 2228 2338 
Q 2531 2678 2651 2914 
Q 2772 3150 2772 3378 
Q 2772 3750 2511 3984 
Q 2250 4219 1831 4219 
Q 1534 4219 1204 4116 
Q 875 4013 500 3803 
L 500 4441 
Q 881 4594 1212 4672 
Q 1544 4750 1819 4750 
Q 2544 4750 2975 4387 
Q 3406 4025 3406 3419 
Q 3406 3131 3298 2873 
Q 3191 2616 2906 2266 
Q 2828 2175 2409 1742 
Q 1991 1309 1228 531 
z
" transform="scale(0.015625)"/>
       </defs>
       <use xlink:href="#DejaVuSans-32"/>
       <use xlink:href="#DejaVuSans-30" x="63.623047"/>
       <use xlink:href="#DejaVuSans-30" x="127.246094"/>
      </g>
     </g>
    </g>
    <g id="xtick_3">
     <g id="line2d_3">
      <g>
       <use xlink:href="#md27890076b" x="230.370462" y="161.561308" style="stroke: #000000; stroke-width: 0.8"/>
      </g>
     </g>
     <g id="text_3">
      <!-- 400 -->
      <g transform="translate(218.917962 177.679433) scale(0.12 -0.12)">
       <defs>
        <path id="DejaVuSans-34" d="M 2419 4116 
L 825 1625 
L 2419 1625 
L 2419 4116 
z
M 2253 4666 
L 3047 4666 
L 3047 1625 
L 3713 1625 
L 3713 1100 
L 3047 1100 
L 3047 0 
L 2419 0 
L 2419 1100 
L 313 1100 
L 313 1709 
L 2253 4666 
z
" transform="scale(0.015625)"/>
       </defs>
       <use xlink:href="#DejaVuSans-34"/>
       <use xlink:href="#DejaVuSans-30" x="63.623047"/>
       <use xlink:href="#DejaVuSans-30" x="127.246094"/>
      </g>
     </g>
    </g>
    <g id="xtick_4">
     <g id="line2d_4">
      <g>
       <use xlink:href="#md27890076b" x="312.9561" y="161.561308" style="stroke: #000000; stroke-width: 0.8"/>
      </g>
     </g>
     <g id="text_4">
      <!-- 600 -->
      <g transform="translate(301.5036 177.679433) scale(0.12 -0.12)">
       <defs>
        <path id="DejaVuSans-36" d="M 2113 2584 
Q 1688 2584 1439 2293 
Q 1191 2003 1191 1497 
Q 1191 994 1439 701 
Q 1688 409 2113 409 
Q 2538 409 2786 701 
Q 3034 994 3034 1497 
Q 3034 2003 2786 2293 
Q 2538 2584 2113 2584 
z
M 3366 4563 
L 3366 3988 
Q 3128 4100 2886 4159 
Q 2644 4219 2406 4219 
Q 1781 4219 1451 3797 
Q 1122 3375 1075 2522 
Q 1259 2794 1537 2939 
Q 1816 3084 2150 3084 
Q 2853 3084 3261 2657 
Q 3669 2231 3669 1497 
Q 3669 778 3244 343 
Q 2819 -91 2113 -91 
Q 1303 -91 875 529 
Q 447 1150 447 2328 
Q 447 3434 972 4092 
Q 1497 4750 2381 4750 
Q 2619 4750 2861 4703 
Q 3103 4656 3366 4563 
z
" transform="scale(0.015625)"/>
       </defs>
       <use xlink:href="#DejaVuSans-36"/>
       <use xlink:href="#DejaVuSans-30" x="63.623047"/>
       <use xlink:href="#DejaVuSans-30" x="127.246094"/>
      </g>
     </g>
    </g>
    <g id="xtick_5">
     <g id="line2d_5">
      <g>
       <use xlink:href="#md27890076b" x="395.541737" y="161.561308" style="stroke: #000000; stroke-width: 0.8"/>
      </g>
     </g>
     <g id="text_5">
      <!-- 800 -->
      <g transform="translate(384.089237 177.679433) scale(0.12 -0.12)">
       <defs>
        <path id="DejaVuSans-38" d="M 2034 2216 
Q 1584 2216 1326 1975 
Q 1069 1734 1069 1313 
Q 1069 891 1326 650 
Q 1584 409 2034 409 
Q 2484 409 2743 651 
Q 3003 894 3003 1313 
Q 3003 1734 2745 1975 
Q 2488 2216 2034 2216 
z
M 1403 2484 
Q 997 2584 770 2862 
Q 544 3141 544 3541 
Q 544 4100 942 4425 
Q 1341 4750 2034 4750 
Q 2731 4750 3128 4425 
Q 3525 4100 3525 3541 
Q 3525 3141 3298 2862 
Q 3072 2584 2669 2484 
Q 3125 2378 3379 2068 
Q 3634 1759 3634 1313 
Q 3634 634 3220 271 
Q 2806 -91 2034 -91 
Q 1263 -91 848 271 
Q 434 634 434 1313 
Q 434 1759 690 2068 
Q 947 2378 1403 2484 
z
M 1172 3481 
Q 1172 3119 1398 2916 
Q 1625 2713 2034 2713 
Q 2441 2713 2670 2916 
Q 2900 3119 2900 3481 
Q 2900 3844 2670 4047 
Q 2441 4250 2034 4250 
Q 1625 4250 1398 4047 
Q 1172 3844 1172 3481 
z
" transform="scale(0.015625)"/>
       </defs>
       <use xlink:href="#DejaVuSans-38"/>
       <use xlink:href="#DejaVuSans-30" x="63.623047"/>
       <use xlink:href="#DejaVuSans-30" x="127.246094"/>
      </g>
     </g>
    </g>
    <g id="xtick_6">
     <g id="line2d_6">
      <g>
       <use xlink:href="#md27890076b" x="478.127375" y="161.561308" style="stroke: #000000; stroke-width: 0.8"/>
      </g>
     </g>
     <g id="text_6">
      <!-- 1000 -->
      <g transform="translate(462.857375 177.679433) scale(0.12 -0.12)">
       <defs>
        <path id="DejaVuSans-31" d="M 794 531 
L 1825 531 
L 1825 4091 
L 703 3866 
L 703 4441 
L 1819 4666 
L 2450 4666 
L 2450 531 
L 3481 531 
L 3481 0 
L 794 0 
L 794 531 
z
" transform="scale(0.015625)"/>
       </defs>
       <use xlink:href="#DejaVuSans-31"/>
       <use xlink:href="#DejaVuSans-30" x="63.623047"/>
       <use xlink:href="#DejaVuSans-30" x="127.246094"/>
       <use xlink:href="#DejaVuSans-30" x="190.869141"/>
      </g>
     </g>
    </g>
    <g id="text_7">
     <!-- Training step -->
     <g transform="translate(229.893672 196.053026) scale(0.13 -0.13)">
      <defs>
       <path id="DejaVuSans-54" d="M -19 4666 
L 3928 4666 
L 3928 4134 
L 2272 4134 
L 2272 0 
L 1638 0 
L 1638 4134 
L -19 4134 
L -19 4666 
z
" transform="scale(0.015625)"/>
       <path id="DejaVuSans-72" d="M 2631 2963 
Q 2534 3019 2420 3045 
Q 2306 3072 2169 3072 
Q 1681 3072 1420 2755 
Q 1159 2438 1159 1844 
L 1159 0 
L 581 0 
L 581 3500 
L 1159 3500 
L 1159 2956 
Q 1341 3275 1631 3429 
Q 1922 3584 2338 3584 
Q 2397 3584 2469 3576 
Q 2541 3569 2628 3553 
L 2631 2963 
z
" transform="scale(0.015625)"/>
       <path id="DejaVuSans-61" d="M 2194 1759 
Q 1497 1759 1228 1600 
Q 959 1441 959 1056 
Q 959 750 1161 570 
Q 1363 391 1709 391 
Q 2188 391 2477 730 
Q 2766 1069 2766 1631 
L 2766 1759 
L 2194 1759 
z
M 3341 1997 
L 3341 0 
L 2766 0 
L 2766 531 
Q 2569 213 2275 61 
Q 1981 -91 1556 -91 
Q 1019 -91 701 211 
Q 384 513 384 1019 
Q 384 1609 779 1909 
Q 1175 2209 1959 2209 
L 2766 2209 
L 2766 2266 
Q 2766 2663 2505 2880 
Q 2244 3097 1772 3097 
Q 1472 3097 1187 3025 
Q 903 2953 641 2809 
L 641 3341 
Q 956 3463 1253 3523 
Q 1550 3584 1831 3584 
Q 2591 3584 2966 3190 
Q 3341 2797 3341 1997 
z
" transform="scale(0.015625)"/>
       <path id="DejaVuSans-69" d="M 603 3500 
L 1178 3500 
L 1178 0 
L 603 0 
L 603 3500 
z
M 603 4863 
L 1178 4863 
L 1178 4134 
L 603 4134 
L 603 4863 
z
" transform="scale(0.015625)"/>
       <path id="DejaVuSans-6e" d="M 3513 2113 
L 3513 0 
L 2938 0 
L 2938 2094 
Q 2938 2591 2744 2837 
Q 2550 3084 2163 3084 
Q 1697 3084 1428 2787 
Q 1159 2491 1159 1978 
L 1159 0 
L 581 0 
L 581 3500 
L 1159 3500 
L 1159 2956 
Q 1366 3272 1645 3428 
Q 1925 3584 2291 3584 
Q 2894 3584 3203 3211 
Q 3513 2838 3513 2113 
z
" transform="scale(0.015625)"/>
       <path id="DejaVuSans-67" d="M 2906 1791 
Q 2906 2416 2648 2759 
Q 2391 3103 1925 3103 
Q 1463 3103 1205 2759 
Q 947 2416 947 1791 
Q 947 1169 1205 825 
Q 1463 481 1925 481 
Q 2391 481 2648 825 
Q 2906 1169 2906 1791 
z
M 3481 434 
Q 3481 -459 3084 -895 
Q 2688 -1331 1869 -1331 
Q 1566 -1331 1297 -1286 
Q 1028 -1241 775 -1147 
L 775 -588 
Q 1028 -725 1275 -790 
Q 1522 -856 1778 -856 
Q 2344 -856 2625 -561 
Q 2906 -266 2906 331 
L 2906 616 
Q 2728 306 2450 153 
Q 2172 0 1784 0 
Q 1141 0 747 490 
Q 353 981 353 1791 
Q 353 2603 747 3093 
Q 1141 3584 1784 3584 
Q 2172 3584 2450 3431 
Q 2728 3278 2906 2969 
L 2906 3500 
L 3481 3500 
L 3481 434 
z
" transform="scale(0.015625)"/>
       <path id="DejaVuSans-20" transform="scale(0.015625)"/>
       <path id="DejaVuSans-73" d="M 2834 3397 
L 2834 2853 
Q 2591 2978 2328 3040 
Q 2066 3103 1784 3103 
Q 1356 3103 1142 2972 
Q 928 2841 928 2578 
Q 928 2378 1081 2264 
Q 1234 2150 1697 2047 
L 1894 2003 
Q 2506 1872 2764 1633 
Q 3022 1394 3022 966 
Q 3022 478 2636 193 
Q 2250 -91 1575 -91 
Q 1294 -91 989 -36 
Q 684 19 347 128 
L 347 722 
Q 666 556 975 473 
Q 1284 391 1588 391 
Q 1994 391 2212 530 
Q 2431 669 2431 922 
Q 2431 1156 2273 1281 
Q 2116 1406 1581 1522 
L 1381 1569 
Q 847 1681 609 1914 
Q 372 2147 372 2553 
Q 372 3047 722 3315 
Q 1072 3584 1716 3584 
Q 2034 3584 2315 3537 
Q 2597 3491 2834 3397 
z
" transform="scale(0.015625)"/>
       <path id="DejaVuSans-74" d="M 1172 4494 
L 1172 3500 
L 2356 3500 
L 2356 3053 
L 1172 3053 
L 1172 1153 
Q 1172 725 1289 603 
Q 1406 481 1766 481 
L 2356 481 
L 2356 0 
L 1766 0 
Q 1100 0 847 248 
Q 594 497 594 1153 
L 594 3053 
L 172 3053 
L 172 3500 
L 594 3500 
L 594 4494 
L 1172 4494 
z
" transform="scale(0.015625)"/>
       <path id="DejaVuSans-65" d="M 3597 1894 
L 3597 1613 
L 953 1613 
Q 991 1019 1311 708 
Q 1631 397 2203 397 
Q 2534 397 2845 478 
Q 3156 559 3463 722 
L 3463 178 
Q 3153 47 2828 -22 
Q 2503 -91 2169 -91 
Q 1331 -91 842 396 
Q 353 884 353 1716 
Q 353 2575 817 3079 
Q 1281 3584 2069 3584 
Q 2775 3584 3186 3129 
Q 3597 2675 3597 1894 
z
M 3022 2063 
Q 3016 2534 2758 2815 
Q 2500 3097 2075 3097 
Q 1594 3097 1305 2825 
Q 1016 2553 972 2059 
L 3022 2063 
z
" transform="scale(0.015625)"/>
       <path id="DejaVuSans-70" d="M 1159 525 
L 1159 -1331 
L 581 -1331 
L 581 3500 
L 1159 3500 
L 1159 2969 
Q 1341 3281 1617 3432 
Q 1894 3584 2278 3584 
Q 2916 3584 3314 3078 
Q 3713 2572 3713 1747 
Q 3713 922 3314 415 
Q 2916 -91 2278 -91 
Q 1894 -91 1617 61 
Q 1341 213 1159 525 
z
M 3116 1747 
Q 3116 2381 2855 2742 
Q 2594 3103 2138 3103 
Q 1681 3103 1420 2742 
Q 1159 2381 1159 1747 
Q 1159 1113 1420 752 
Q 1681 391 2138 391 
Q 2594 391 2855 752 
Q 3116 1113 3116 1747 
z
" transform="scale(0.015625)"/>
      </defs>
      <use xlink:href="#DejaVuSans-54"/>
      <use xlink:href="#DejaVuSans-72" x="46.333984"/>
      <use xlink:href="#DejaVuSans-61" x="87.447266"/>
      <use xlink:href="#DejaVuSans-69" x="148.726562"/>
      <use xlink:href="#DejaVuSans-6e" x="176.509766"/>
      <use xlink:href="#DejaVuSans-69" x="239.888672"/>
      <use xlink:href="#DejaVuSans-6e" x="267.671875"/>
      <use xlink:href="#DejaVuSans-67" x="331.050781"/>
      <use xlink:href="#DejaVuSans-20" x="394.527344"/>
      <use xlink:href="#DejaVuSans-73" x="426.314453"/>
      <use xlink:href="#DejaVuSans-74" x="478.414062"/>
      <use xlink:href="#DejaVuSans-65" x="517.623047"/>
      <use xlink:href="#DejaVuSans-70" x="579.146484"/>
     </g>
    </g>
   </g>
   <g id="matplotlib.axis_2">
    <g id="ytick_1">
     <g id="line2d_7">
      <path d="M 65.199187 161.561308 
L 478.127375 161.561308 
" clip-path="url(#pe5a4f7aab0)" style="fill: none; stroke: #ececec; stroke-width: 0.9; stroke-linecap: square"/>
     </g>
     <g id="line2d_8">
      <defs>
       <path id="maf89732f69" d="M 0 0 
L -3.5 0 
" style="stroke: #000000; stroke-width: 0.8"/>
      </defs>
      <g>
       <use xlink:href="#maf89732f69" x="65.199187" y="161.561308" style="stroke: #000000; stroke-width: 0.8"/>
      </g>
     </g>
     <g id="text_8">
      <!-- 0 -->
      <g style="fill: #c0392b" transform="translate(50.564187 166.12037) scale(0.12 -0.12)">
       <use xlink:href="#DejaVuSans-30"/>
      </g>
     </g>
    </g>
    <g id="ytick_2">
     <g id="line2d_9">
      <path d="M 65.199187 121.627847 
L 478.127375 121.627847 
" clip-path="url(#pe5a4f7aab0)" style="fill: none; stroke: #ececec; stroke-width: 0.9; stroke-linecap: square"/>
     </g>
     <g id="line2d_10">
      <g>
       <use xlink:href="#maf89732f69" x="65.199187" y="121.627847" style="stroke: #000000; stroke-width: 0.8"/>
      </g>
     </g>
     <g id="text_9">
      <!-- 5 -->
      <g style="fill: #c0392b" transform="translate(50.564187 126.186909) scale(0.12 -0.12)">
       <defs>
        <path id="DejaVuSans-35" d="M 691 4666 
L 3169 4666 
L 3169 4134 
L 1269 4134 
L 1269 2991 
Q 1406 3038 1543 3061 
Q 1681 3084 1819 3084 
Q 2600 3084 3056 2656 
Q 3513 2228 3513 1497 
Q 3513 744 3044 326 
Q 2575 -91 1722 -91 
Q 1428 -91 1123 -41 
Q 819 9 494 109 
L 494 744 
Q 775 591 1075 516 
Q 1375 441 1709 441 
Q 2250 441 2565 725 
Q 2881 1009 2881 1497 
Q 2881 1984 2565 2268 
Q 2250 2553 1709 2553 
Q 1456 2553 1204 2497 
Q 953 2441 691 2322 
L 691 4666 
z
" transform="scale(0.015625)"/>
       </defs>
       <use xlink:href="#DejaVuSans-35"/>
      </g>
     </g>
    </g>
    <g id="ytick_3">
     <g id="line2d_11">
      <path d="M 65.199187 81.694386 
L 478.127375 81.694386 
" clip-path="url(#pe5a4f7aab0)" style="fill: none; stroke: #ececec; stroke-width: 0.9; stroke-linecap: square"/>
     </g>
     <g id="line2d_12">
      <g>
       <use xlink:href="#maf89732f69" x="65.199187" y="81.694386" style="stroke: #000000; stroke-width: 0.8"/>
      </g>
     </g>
     <g id="text_10">
      <!-- 10 -->
      <g style="fill: #c0392b" transform="translate(42.929187 86.253448) scale(0.12 -0.12)">
       <use xlink:href="#DejaVuSans-31"/>
       <use xlink:href="#DejaVuSans-30" x="63.623047"/>
      </g>
     </g>
    </g>
    <g id="ytick_4">
     <g id="line2d_13">
      <path d="M 65.199187 41.760925 
L 478.127375 41.760925 
" clip-path="url(#pe5a4f7aab0)" style="fill: none; stroke: #ececec; stroke-width: 0.9; stroke-linecap: square"/>
     </g>
     <g id="line2d_14">
      <g>
       <use xlink:href="#maf89732f69" x="65.199187" y="41.760925" style="stroke: #000000; stroke-width: 0.8"/>
      </g>
     </g>
     <g id="text_11">
      <!-- 15 -->
      <g style="fill: #c0392b" transform="translate(42.929187 46.319987) scale(0.12 -0.12)">
       <use xlink:href="#DejaVuSans-31"/>
       <use xlink:href="#DejaVuSans-35" x="63.623047"/>
      </g>
     </g>
    </g>
    <g id="text_12">
     <!-- Energy in Top-10% PCs (%) -->
     <g style="fill: #c0392b" transform="translate(34.641531 173.956552) rotate(-90) scale(0.11 -0.11)">
      <defs>
       <path id="DejaVuSans-45" d="M 628 4666 
L 3578 4666 
L 3578 4134 
L 1259 4134 
L 1259 2753 
L 3481 2753 
L 3481 2222 
L 1259 2222 
L 1259 531 
L 3634 531 
L 3634 0 
L 628 0 
L 628 4666 
z
" transform="scale(0.015625)"/>
       <path id="DejaVuSans-79" d="M 2059 -325 
Q 1816 -950 1584 -1140 
Q 1353 -1331 966 -1331 
L 506 -1331 
L 506 -850 
L 844 -850 
Q 1081 -850 1212 -737 
Q 1344 -625 1503 -206 
L 1606 56 
L 191 3500 
L 800 3500 
L 1894 763 
L 2988 3500 
L 3597 3500 
L 2059 -325 
z
" transform="scale(0.015625)"/>
       <path id="DejaVuSans-6f" d="M 1959 3097 
Q 1497 3097 1228 2736 
Q 959 2375 959 1747 
Q 959 1119 1226 758 
Q 1494 397 1959 397 
Q 2419 397 2687 759 
Q 2956 1122 2956 1747 
Q 2956 2369 2687 2733 
Q 2419 3097 1959 3097 
z
M 1959 3584 
Q 2709 3584 3137 3096 
Q 3566 2609 3566 1747 
Q 3566 888 3137 398 
Q 2709 -91 1959 -91 
Q 1206 -91 779 398 
Q 353 888 353 1747 
Q 353 2609 779 3096 
Q 1206 3584 1959 3584 
z
" transform="scale(0.015625)"/>
       <path id="DejaVuSans-2d" d="M 313 2009 
L 1997 2009 
L 1997 1497 
L 313 1497 
L 313 2009 
z
" transform="scale(0.015625)"/>
       <path id="DejaVuSans-25" d="M 4653 2053 
Q 4381 2053 4226 1822 
Q 4072 1591 4072 1178 
Q 4072 772 4226 539 
Q 4381 306 4653 306 
Q 4919 306 5073 539 
Q 5228 772 5228 1178 
Q 5228 1588 5073 1820 
Q 4919 2053 4653 2053 
z
M 4653 2450 
Q 5147 2450 5437 2106 
Q 5728 1763 5728 1178 
Q 5728 594 5436 251 
Q 5144 -91 4653 -91 
Q 4153 -91 3862 251 
Q 3572 594 3572 1178 
Q 3572 1766 3864 2108 
Q 4156 2450 4653 2450 
z
M 1428 4353 
Q 1159 4353 1004 4120 
Q 850 3888 850 3481 
Q 850 3069 1003 2837 
Q 1156 2606 1428 2606 
Q 1700 2606 1854 2837 
Q 2009 3069 2009 3481 
Q 2009 3884 1853 4118 
Q 1697 4353 1428 4353 
z
M 4250 4750 
L 4750 4750 
L 1831 -91 
L 1331 -91 
L 4250 4750 
z
M 1428 4750 
Q 1922 4750 2215 4408 
Q 2509 4066 2509 3481 
Q 2509 2891 2217 2550 
Q 1925 2209 1428 2209 
Q 931 2209 642 2551 
Q 353 2894 353 3481 
Q 353 4063 643 4406 
Q 934 4750 1428 4750 
z
" transform="scale(0.015625)"/>
       <path id="DejaVuSans-50" d="M 1259 4147 
L 1259 2394 
L 2053 2394 
Q 2494 2394 2734 2622 
Q 2975 2850 2975 3272 
Q 2975 3691 2734 3919 
Q 2494 4147 2053 4147 
L 1259 4147 
z
M 628 4666 
L 2053 4666 
Q 2838 4666 3239 4311 
Q 3641 3956 3641 3272 
Q 3641 2581 3239 2228 
Q 2838 1875 2053 1875 
L 1259 1875 
L 1259 0 
L 628 0 
L 628 4666 
z
" transform="scale(0.015625)"/>
       <path id="DejaVuSans-43" d="M 4122 4306 
L 4122 3641 
Q 3803 3938 3442 4084 
Q 3081 4231 2675 4231 
Q 1875 4231 1450 3742 
Q 1025 3253 1025 2328 
Q 1025 1406 1450 917 
Q 1875 428 2675 428 
Q 3081 428 3442 575 
Q 3803 722 4122 1019 
L 4122 359 
Q 3791 134 3420 21 
Q 3050 -91 2638 -91 
Q 1578 -91 968 557 
Q 359 1206 359 2328 
Q 359 3453 968 4101 
Q 1578 4750 2638 4750 
Q 3056 4750 3426 4639 
Q 3797 4528 4122 4306 
z
" transform="scale(0.015625)"/>
       <path id="DejaVuSans-28" d="M 1984 4856 
Q 1566 4138 1362 3434 
Q 1159 2731 1159 2009 
Q 1159 1288 1364 580 
Q 1569 -128 1984 -844 
L 1484 -844 
Q 1016 -109 783 600 
Q 550 1309 550 2009 
Q 550 2706 781 3412 
Q 1013 4119 1484 4856 
L 1984 4856 
z
" transform="scale(0.015625)"/>
       <path id="DejaVuSans-29" d="M 513 4856 
L 1013 4856 
Q 1481 4119 1714 3412 
Q 1947 2706 1947 2009 
Q 1947 1309 1714 600 
Q 1481 -109 1013 -844 
L 513 -844 
Q 928 -128 1133 580 
Q 1338 1288 1338 2009 
Q 1338 2731 1133 3434 
Q 928 4138 513 4856 
z
" transform="scale(0.015625)"/>
      </defs>
      <use xlink:href="#DejaVuSans-45"/>
      <use xlink:href="#DejaVuSans-6e" x="63.183594"/>
      <use xlink:href="#DejaVuSans-65" x="126.5625"/>
      <use xlink:href="#DejaVuSans-72" x="188.085938"/>
      <use xlink:href="#DejaVuSans-67" x="227.449219"/>
      <use xlink:href="#DejaVuSans-79" x="290.925781"/>
      <use xlink:href="#DejaVuSans-20" x="350.105469"/>
      <use xlink:href="#DejaVuSans-69" x="381.892578"/>
      <use xlink:href="#DejaVuSans-6e" x="409.675781"/>
      <use xlink:href="#DejaVuSans-20" x="473.054688"/>
      <use xlink:href="#DejaVuSans-54" x="504.841797"/>
      <use xlink:href="#DejaVuSans-6f" x="548.925781"/>
      <use xlink:href="#DejaVuSans-70" x="610.107422"/>
      <use xlink:href="#DejaVuSans-2d" x="673.583984"/>
      <use xlink:href="#DejaVuSans-31" x="709.667969"/>
      <use xlink:href="#DejaVuSans-30" x="773.291016"/>
      <use xlink:href="#DejaVuSans-25" x="836.914062"/>
      <use xlink:href="#DejaVuSans-20" x="931.933594"/>
      <use xlink:href="#DejaVuSans-50" x="963.720703"/>
      <use xlink:href="#DejaVuSans-43" x="1024.023438"/>
      <use xlink:href="#DejaVuSans-73" x="1093.847656"/>
      <use xlink:href="#DejaVuSans-20" x="1145.947266"/>
      <use xlink:href="#DejaVuSans-28" x="1177.734375"/>
      <use xlink:href="#DejaVuSans-25" x="1216.748047"/>
      <use xlink:href="#DejaVuSans-29" x="1311.767578"/>
     </g>
    </g>
   </g>
   <g id="patch_3">
    <path d="M 438.899197 161.561308 
L 478.127375 161.561308 
L 478.127375 37.767578 
L 438.899197 37.767578 
z
" clip-path="url(#pe5a4f7aab0)" style="fill: #f2c200; opacity: 0.13; stroke: #f2c200; stroke-linejoin: miter"/>
   </g>
   <g id="patch_4">
    <path d="M 65.199187 161.561308 
L 65.199187 37.767578 
" style="fill: none; stroke: #c0392b; stroke-width: 1.2; stroke-linejoin: miter; stroke-linecap: square"/>
   </g>
   <g id="patch_5">
    <path d="M 65.199187 161.561308 
L 478.127375 161.561308 
" style="fill: none; stroke: #666666; stroke-linejoin: miter; stroke-linecap: square"/>
   </g>
   <g id="line2d_15">
    <path d="M 65.199187 151.427857 
L 65.612116 151.242555 
L 66.025044 151.591382 
L 66.437972 151.551669 
L 66.8509 151.102371 
L 67.263828 151.122265 
L 67.676757 151.313885 
L 68.089685 151.994175 
L 68.502613 151.812642 
L 68.915541 152.10492 
L 69.328469 151.938926 
L 70.154326 153.050973 
L 70.567254 152.971501 
L 70.980182 151.398244 
L 71.806038 151.779097 
L 72.218967 151.804129 
L 72.631895 151.067716 
L 73.044823 150.714611 
L 73.457751 150.87936 
L 73.870679 151.333386 
L 74.283608 150.713411 
L 74.696536 151.741299 
L 75.109464 151.642466 
L 75.522392 152.91854 
L 75.93532 153.042211 
L 76.348248 151.21497 
L 76.761177 150.432026 
L 77.174105 151.070658 
L 77.587033 151.398861 
L 77.999961 151.315201 
L 78.412889 152.302014 
L 78.825818 151.247545 
L 79.238746 151.172271 
L 79.651674 150.697093 
L 80.064602 152.373598 
L 80.47753 151.757649 
L 80.890459 151.371733 
L 81.303387 151.304393 
L 81.716315 152.373085 
L 82.542171 152.882296 
L 82.955099 150.879069 
L 83.368028 150.777386 
L 83.780956 151.750805 
L 84.193884 151.410309 
L 84.606812 151.760785 
L 85.01974 150.991323 
L 85.432669 150.877502 
L 85.845597 151.960655 
L 86.258525 151.896371 
L 86.671453 151.226804 
L 87.084381 151.393409 
L 87.49731 152.284282 
L 87.910238 151.598451 
L 88.736094 151.135407 
L 89.149022 151.038964 
L 89.974879 151.188293 
L 90.387807 151.868588 
L 90.800735 150.422418 
L 91.213663 151.36832 
L 91.626591 151.408723 
L 92.03952 151.90634 
L 92.452448 151.549591 
L 92.865376 150.796501 
L 93.691232 152.291697 
L 94.517089 151.76899 
L 94.930017 152.140222 
L 95.342945 152.229664 
L 95.755873 151.845909 
L 96.168801 150.552941 
L 96.58173 151.149149 
L 96.994658 150.55925 
L 97.407586 150.655836 
L 97.820514 152.329331 
L 98.233442 151.174011 
L 98.646371 151.192331 
L 99.472227 151.628002 
L 99.885155 153.281327 
L 100.298083 151.975213 
L 100.711012 152.253944 
L 101.12394 151.225016 
L 101.536868 151.656984 
L 101.949796 151.792855 
L 102.362724 150.933832 
L 102.775652 151.659662 
L 103.188581 150.977385 
L 103.601509 150.517962 
L 104.427365 152.051192 
L 104.840293 151.325459 
L 105.253222 151.935179 
L 105.66615 152.046301 
L 106.079078 152.772695 
L 106.492006 151.521905 
L 106.904934 151.406273 
L 107.317863 152.05225 
L 108.143719 150.75577 
L 108.556647 150.390629 
L 108.969575 152.071521 
L 109.382503 151.117221 
L 109.795432 151.507711 
L 110.20836 151.729289 
L 111.034216 151.439745 
L 111.447144 151.80423 
L 111.860073 152.645196 
L 112.273001 151.853552 
L 112.685929 151.616229 
L 113.098857 151.81086 
L 113.511785 151.488319 
L 113.924714 151.831685 
L 114.337642 151.915541 
L 114.75057 151.044535 
L 115.163498 151.875652 
L 115.576426 151.092883 
L 115.989354 151.781312 
L 116.402283 150.984672 
L 116.815211 152.41239 
L 117.228139 151.140526 
L 117.641067 152.058854 
L 118.053995 152.67654 
L 118.466924 150.704308 
L 118.879852 151.787604 
L 119.29278 152.160144 
L 119.705708 151.761099 
L 120.944493 149.769546 
L 121.357421 151.721036 
L 121.770349 152.459005 
L 122.183277 151.334877 
L 122.596205 151.953777 
L 123.009134 152.286171 
L 123.422062 152.179586 
L 123.83499 151.62706 
L 124.247918 152.262157 
L 124.660846 151.851753 
L 125.073775 151.672581 
L 125.486703 151.904695 
L 125.899631 150.994629 
L 126.312559 150.996651 
L 126.725487 151.38006 
L 127.138416 149.966201 
L 127.551344 151.805316 
L 127.964272 152.301645 
L 128.3772 151.028733 
L 128.790128 151.412197 
L 129.203056 151.640157 
L 129.615985 152.305444 
L 130.028913 152.02906 
L 130.854769 151.088523 
L 131.267697 152.779292 
L 131.680626 151.62717 
L 132.093554 151.216772 
L 132.506482 149.750903 
L 132.91941 151.265357 
L 133.332338 150.749038 
L 133.745267 151.061862 
L 134.158195 151.647682 
L 134.571123 150.980638 
L 135.809907 151.727049 
L 136.222836 151.785232 
L 136.635764 151.244788 
L 137.048692 151.960658 
L 137.46162 152.218502 
L 138.287477 151.261819 
L 138.700405 151.190777 
L 139.113333 150.354434 
L 139.526261 152.314219 
L 139.939189 151.176604 
L 140.352117 150.980231 
L 140.765046 151.976478 
L 141.177974 151.299431 
L 141.590902 152.683258 
L 142.00383 151.818824 
L 142.416758 152.383731 
L 143.242615 152.208553 
L 143.655543 151.522657 
L 144.068471 150.377208 
L 144.481399 151.364851 
L 144.894328 150.560665 
L 145.307256 151.634188 
L 145.720184 151.037328 
L 146.133112 150.816337 
L 146.54604 151.112101 
L 146.958968 151.546061 
L 147.371897 153.052952 
L 147.784825 151.71509 
L 148.197753 151.06695 
L 148.610681 151.602284 
L 149.023609 151.362937 
L 149.436538 151.430714 
L 149.849466 150.774974 
L 150.262394 151.250278 
L 150.675322 151.091985 
L 151.08825 150.814642 
L 151.501179 151.024322 
L 151.914107 150.510297 
L 152.327035 151.196162 
L 152.739963 151.418576 
L 153.152891 152.324817 
L 153.565819 152.233361 
L 153.978748 151.119739 
L 154.391676 151.541945 
L 154.804604 151.421855 
L 155.217532 151.902075 
L 155.63046 151.768118 
L 156.043389 151.060832 
L 156.456317 150.804691 
L 156.869245 151.525701 
L 157.282173 151.716834 
L 157.695101 151.361965 
L 158.10803 150.742974 
L 158.520958 151.225459 
L 158.933886 152.507685 
L 159.346814 150.790734 
L 159.759742 151.786222 
L 160.17267 151.758025 
L 160.585599 151.554526 
L 160.998527 151.864934 
L 161.411455 151.79566 
L 161.824383 151.016739 
L 162.237311 150.609535 
L 162.65024 150.822139 
L 163.063168 150.694494 
L 163.476096 151.770735 
L 163.889024 150.025338 
L 164.714881 151.93315 
L 165.127809 152.93265 
L 165.540737 151.876813 
L 165.953665 151.310698 
L 166.366593 151.719727 
L 167.19245 152.11597 
L 167.605378 151.245608 
L 168.018306 150.844953 
L 168.431234 151.552411 
L 168.844162 150.890838 
L 169.257091 151.276312 
L 169.670019 150.882746 
L 170.082947 151.333812 
L 170.495875 150.74817 
L 170.908803 151.043065 
L 171.321732 153.088142 
L 171.73466 151.314667 
L 172.973444 152.061347 
L 173.386372 151.95834 
L 173.799301 151.096219 
L 174.212229 151.022993 
L 174.625157 152.216455 
L 175.038085 150.92792 
L 175.451013 151.124386 
L 175.863942 150.580888 
L 176.27687 151.872525 
L 176.689798 151.225822 
L 177.102726 152.283549 
L 177.515654 151.477187 
L 177.928583 151.444074 
L 178.341511 150.833616 
L 178.754439 151.291819 
L 179.167367 151.387042 
L 179.580295 152.584115 
L 179.993223 150.304821 
L 180.406152 150.550454 
L 180.81908 151.204635 
L 181.232008 150.629708 
L 181.644936 150.855922 
L 182.057864 150.610291 
L 182.470793 150.92125 
L 182.883721 151.996083 
L 183.296649 151.772069 
L 183.709577 152.373253 
L 184.122505 151.091207 
L 184.535434 151.788109 
L 184.948362 151.744717 
L 185.36129 152.179836 
L 186.600074 150.328038 
L 187.013003 152.023411 
L 187.425931 151.876485 
L 188.251787 150.349778 
L 188.664715 151.425583 
L 189.077644 151.212831 
L 189.490572 151.864555 
L 189.9035 151.958338 
L 190.316428 151.747887 
L 190.729356 151.736575 
L 191.142285 152.457718 
L 191.555213 151.300429 
L 191.968141 150.912949 
L 192.381069 151.058783 
L 192.793997 150.951314 
L 193.206925 151.905205 
L 194.032782 150.509315 
L 194.44571 151.111258 
L 194.858638 151.459456 
L 195.271566 151.392222 
L 195.684495 150.538592 
L 196.097423 151.088445 
L 196.510351 151.132563 
L 196.923279 152.027835 
L 197.336207 151.210852 
L 197.749136 150.92993 
L 198.162064 151.215217 
L 198.574992 151.246052 
L 198.98792 151.426696 
L 199.400848 151.282498 
L 199.813776 150.976056 
L 200.226705 149.936975 
L 200.639633 151.988452 
L 201.052561 151.862931 
L 201.465489 152.816122 
L 201.878417 151.822671 
L 202.291346 151.588262 
L 202.704274 151.50005 
L 203.117202 152.572383 
L 203.53013 151.311344 
L 203.943058 151.279084 
L 204.355986 151.033512 
L 204.768915 151.703296 
L 205.594771 150.579625 
L 206.007699 150.760764 
L 206.420627 150.383279 
L 206.833556 151.374817 
L 207.246484 151.336022 
L 207.659412 152.422555 
L 208.07234 150.926026 
L 208.485268 151.605856 
L 208.898197 151.247804 
L 209.311125 151.851758 
L 210.136981 149.758901 
L 210.549909 151.113788 
L 210.962837 151.098252 
L 211.788694 149.979765 
L 212.201622 151.213583 
L 212.61455 151.351731 
L 213.027478 152.356712 
L 213.440407 152.369485 
L 213.853335 151.843482 
L 214.266263 152.209207 
L 214.679191 152.949833 
L 215.092119 152.530023 
L 215.917976 150.877675 
L 216.330904 151.014408 
L 216.743832 150.821742 
L 217.15676 150.992263 
L 217.569688 151.026612 
L 217.982617 151.306283 
L 218.395545 150.937687 
L 218.808473 151.64231 
L 219.221401 151.166429 
L 220.047258 152.159976 
L 220.460186 152.149797 
L 220.873114 150.531341 
L 221.286042 151.396969 
L 221.69897 151.10175 
L 222.111899 151.021566 
L 222.524827 151.817662 
L 222.937755 150.170983 
L 223.350683 151.380687 
L 223.763611 150.789629 
L 224.176539 151.096905 
L 224.589468 152.186555 
L 225.002396 151.835083 
L 225.415324 151.782271 
L 225.828252 151.237149 
L 226.24118 152.061579 
L 227.067037 151.21745 
L 227.479965 152.315468 
L 227.892893 150.790065 
L 228.71875 151.617736 
L 229.131678 150.375645 
L 229.544606 150.440611 
L 230.370462 152.070171 
L 231.196319 151.040252 
L 231.609247 151.706226 
L 232.022175 150.532826 
L 232.435103 153.044585 
L 232.848031 151.742917 
L 233.26096 151.77691 
L 233.673888 150.444058 
L 234.086816 150.897318 
L 234.912672 151.379139 
L 235.325601 151.04766 
L 235.738529 149.94743 
L 236.151457 151.402413 
L 236.564385 151.54207 
L 236.977313 151.917762 
L 237.390241 151.339651 
L 237.80317 152.627637 
L 238.216098 150.75887 
L 238.629026 151.356943 
L 239.041954 152.382381 
L 239.867811 151.224774 
L 240.693667 151.046692 
L 241.106595 151.546934 
L 241.519523 150.421938 
L 241.932452 150.941003 
L 242.34538 151.711597 
L 242.758308 150.816998 
L 243.171236 151.042147 
L 243.584164 150.943075 
L 244.410021 152.128084 
L 244.822949 150.775744 
L 245.648805 152.173552 
L 246.061733 151.50691 
L 246.474662 152.197953 
L 246.88759 150.487762 
L 247.300518 149.834515 
L 247.713446 150.893577 
L 248.126374 150.821622 
L 248.539303 151.573293 
L 248.952231 150.581098 
L 249.365159 150.347129 
L 250.191015 151.968314 
L 250.603943 152.429816 
L 251.016872 152.652527 
L 251.4298 151.627455 
L 251.842728 151.406508 
L 252.255656 151.549682 
L 252.668584 150.839434 
L 253.081513 150.437008 
L 253.494441 150.400671 
L 253.907369 150.175667 
L 254.320297 152.044662 
L 254.733225 150.798896 
L 255.146154 151.58053 
L 255.559082 150.944495 
L 256.384938 151.109118 
L 256.797866 151.81306 
L 257.210794 151.492572 
L 257.623723 150.672249 
L 258.036651 151.026948 
L 258.862507 151.116854 
L 259.275435 151.110186 
L 259.688364 151.314445 
L 260.101292 149.603876 
L 260.51422 151.531012 
L 261.340076 150.248667 
L 261.753005 152.024839 
L 262.165933 152.250673 
L 262.578861 151.275689 
L 262.991789 151.16047 
L 263.404717 152.011209 
L 264.643502 151.286217 
L 265.05643 150.243125 
L 265.882286 151.522823 
L 266.295215 151.352165 
L 266.708143 150.236867 
L 267.121071 151.38926 
L 267.533999 151.211909 
L 267.946927 151.452144 
L 268.359856 152.030403 
L 268.772784 150.624264 
L 269.185712 152.045817 
L 269.59864 151.47911 
L 270.011568 151.132082 
L 270.424496 150.988121 
L 270.837425 150.246729 
L 271.250353 150.637858 
L 271.663281 150.262235 
L 272.076209 151.657331 
L 272.489137 151.489227 
L 272.902066 150.480445 
L 273.314994 151.272913 
L 273.727922 150.864203 
L 274.14085 151.828266 
L 274.553778 151.638198 
L 274.966706 151.619559 
L 275.379635 152.482595 
L 275.792563 150.467756 
L 276.205491 152.114102 
L 276.618419 150.634915 
L 277.031347 150.417515 
L 277.857204 151.303454 
L 278.270132 150.725208 
L 278.68306 150.673556 
L 279.095988 151.010225 
L 279.508917 150.849324 
L 279.921845 151.667267 
L 280.334773 151.848801 
L 281.573557 151.048957 
L 281.986486 152.112359 
L 282.399414 151.444541 
L 282.812342 151.141991 
L 283.22527 150.456687 
L 283.638198 150.456026 
L 284.051127 151.821185 
L 284.464055 150.155708 
L 284.876983 151.736235 
L 285.289911 151.73988 
L 285.702839 152.482265 
L 286.115768 151.307468 
L 286.528696 151.913093 
L 286.941624 150.284621 
L 287.354552 151.453887 
L 287.76748 150.955821 
L 288.180408 152.132094 
L 288.593337 150.815716 
L 289.006265 150.785094 
L 289.419193 151.132977 
L 289.832121 149.869152 
L 290.245049 150.355031 
L 291.070906 151.574428 
L 291.483834 151.250177 
L 291.896762 151.855831 
L 292.722619 151.603693 
L 293.135547 151.537715 
L 293.548475 151.303099 
L 293.961403 150.606481 
L 294.374331 150.763492 
L 294.787259 151.108701 
L 295.200188 150.558494 
L 295.613116 150.950661 
L 296.026044 150.606938 
L 296.438972 150.719773 
L 296.8519 150.550873 
L 297.264829 150.582442 
L 297.677757 152.027094 
L 298.090685 151.929607 
L 298.503613 151.54145 
L 298.916541 151.823782 
L 299.32947 150.812699 
L 299.742398 151.033069 
L 300.155326 151.58878 
L 300.568254 150.618437 
L 300.981182 151.421836 
L 301.39411 150.745711 
L 301.807039 151.089779 
L 302.219967 150.139878 
L 302.632895 150.503668 
L 303.045823 150.072943 
L 303.458751 150.635814 
L 303.87168 151.423562 
L 304.284608 151.725413 
L 304.697536 151.220535 
L 305.110464 151.73434 
L 305.523392 150.558096 
L 305.936321 151.686421 
L 306.349249 151.065078 
L 307.175105 150.72696 
L 307.588033 150.688323 
L 308.000961 150.349077 
L 308.41389 149.448883 
L 308.826818 150.730882 
L 309.652674 151.520362 
L 310.065602 153.436723 
L 310.478531 151.866855 
L 310.891459 151.922046 
L 311.304387 151.23379 
L 311.717315 151.215085 
L 312.130243 151.75982 
L 312.543172 150.847292 
L 312.9561 150.307104 
L 313.369028 151.849814 
L 313.781956 151.655475 
L 314.194884 150.44918 
L 314.607812 151.274791 
L 315.020741 150.105103 
L 315.433669 150.866749 
L 315.846597 151.866711 
L 316.259525 151.72591 
L 316.672453 152.042427 
L 317.085382 151.186752 
L 317.49831 151.41021 
L 317.911238 151.068244 
L 318.324166 150.235914 
L 318.737094 149.705082 
L 319.150023 150.636587 
L 319.975879 151.37274 
L 320.388807 149.38808 
L 320.801735 149.900639 
L 321.214663 151.136327 
L 321.627592 151.628743 
L 322.04052 151.190856 
L 322.866376 151.017076 
L 323.279304 152.271564 
L 323.692233 152.172234 
L 324.105161 151.107707 
L 324.518089 151.250425 
L 324.931017 150.254121 
L 325.756874 150.714726 
L 326.169802 150.160458 
L 326.58273 150.296698 
L 326.995658 150.644327 
L 327.821514 151.970288 
L 328.234443 151.261718 
L 328.647371 150.921713 
L 329.060299 152.565979 
L 329.473227 151.136895 
L 329.886155 151.963556 
L 330.299084 151.616691 
L 330.712012 150.634574 
L 331.537868 150.907009 
L 331.950796 151.270819 
L 332.363725 150.03696 
L 332.776653 151.683218 
L 333.189581 151.776003 
L 333.602509 151.413292 
L 334.015437 150.705386 
L 334.841294 150.96117 
L 335.254222 150.402996 
L 335.66715 152.482192 
L 336.493006 150.762533 
L 336.905935 150.09433 
L 337.318863 151.866596 
L 337.731791 151.59183 
L 338.144719 150.298492 
L 338.557647 151.340266 
L 338.970576 151.389441 
L 339.383504 152.111399 
L 339.796432 152.43928 
L 340.20936 150.726035 
L 340.622288 150.987281 
L 341.035216 150.839742 
L 341.448145 151.765779 
L 341.861073 150.35075 
L 342.274001 151.562811 
L 342.686929 151.042615 
L 343.099857 151.176686 
L 343.512786 150.717945 
L 343.925714 150.539378 
L 344.338642 149.511843 
L 344.75157 150.738381 
L 345.164498 150.809545 
L 345.577426 151.614785 
L 345.990355 151.326796 
L 346.403283 150.471706 
L 346.816211 150.615453 
L 347.229139 151.982405 
L 347.642067 152.363239 
L 348.054996 149.756016 
L 348.467924 150.746503 
L 348.880852 151.017239 
L 349.29378 150.13118 
L 349.706708 151.706079 
L 350.119637 149.741431 
L 351.358421 151.309575 
L 351.771349 150.392805 
L 352.597206 151.524872 
L 353.010134 151.081128 
L 353.423062 153.110257 
L 353.83599 150.279825 
L 354.248918 150.688859 
L 354.661847 150.269689 
L 355.074775 151.51558 
L 355.487703 151.999165 
L 355.900631 150.121316 
L 356.313559 150.891032 
L 356.726488 150.147176 
L 357.139416 151.544319 
L 357.552344 150.548275 
L 357.965272 151.100529 
L 358.3782 151.41887 
L 358.791128 151.073203 
L 359.204057 152.396403 
L 359.616985 150.410368 
L 360.029913 150.257803 
L 360.442841 150.804612 
L 361.268698 151.485486 
L 361.681626 151.131328 
L 362.094554 148.985481 
L 362.92041 149.493165 
L 363.333339 152.098235 
L 363.746267 150.958218 
L 364.159195 152.323684 
L 364.572123 151.52592 
L 364.985051 150.979858 
L 365.397979 152.713744 
L 365.810908 150.268872 
L 366.223836 150.567972 
L 366.636764 151.356318 
L 367.049692 150.713636 
L 367.46262 151.363753 
L 368.288477 149.178616 
L 368.701405 149.10979 
L 369.114333 151.389885 
L 369.527261 151.178089 
L 369.94019 150.763806 
L 370.353118 150.667106 
L 370.766046 150.777678 
L 371.178974 151.87545 
L 371.591902 151.830776 
L 372.00483 151.232954 
L 372.417759 150.281002 
L 372.830687 150.051804 
L 373.243615 151.030518 
L 373.656543 149.667378 
L 374.069471 150.005351 
L 374.4824 149.13358 
L 374.895328 151.3565 
L 375.721184 149.965531 
L 376.134112 150.719372 
L 376.547041 150.979516 
L 376.959969 151.76797 
L 377.372897 150.287192 
L 377.785825 151.272691 
L 378.198753 150.017189 
L 378.611681 149.231608 
L 379.02461 150.491519 
L 379.437538 149.485775 
L 379.850466 149.545193 
L 380.263394 149.4278 
L 380.676322 150.444021 
L 381.089251 151.056801 
L 381.502179 150.08334 
L 381.915107 150.396532 
L 382.328035 151.428867 
L 382.740963 150.858246 
L 383.153892 151.093987 
L 383.979748 150.568823 
L 384.392676 150.679422 
L 385.218532 150.500488 
L 385.631461 149.60431 
L 386.044389 150.000179 
L 386.457317 149.919365 
L 386.870245 150.220303 
L 387.283173 150.098164 
L 387.696102 150.645369 
L 388.10903 150.035478 
L 388.521958 151.140955 
L 388.934886 151.700633 
L 390.586599 150.447974 
L 390.999527 150.299911 
L 391.412455 150.710503 
L 391.825383 149.7764 
L 392.238312 150.086354 
L 392.65124 150.546712 
L 393.064168 151.31627 
L 393.477096 151.045702 
L 393.890024 149.782927 
L 394.302953 150.571017 
L 394.715881 150.642319 
L 395.128809 151.31453 
L 395.541737 149.673676 
L 395.954665 150.534305 
L 396.367594 150.377136 
L 396.780522 150.934383 
L 397.19345 149.130197 
L 397.606378 149.757466 
L 398.019306 149.924917 
L 398.432234 149.682248 
L 398.845163 151.081486 
L 399.258091 150.220977 
L 399.671019 150.255283 
L 400.083947 149.635338 
L 400.909804 151.578835 
L 401.322732 151.832302 
L 402.148588 150.312667 
L 402.561516 150.095347 
L 402.974445 150.114693 
L 403.387373 150.553655 
L 403.800301 149.562137 
L 404.213229 149.143497 
L 404.626157 149.746086 
L 405.039085 150.961239 
L 405.452014 150.482372 
L 405.864942 150.20473 
L 406.690798 151.45562 
L 407.103726 151.268038 
L 407.516655 149.847315 
L 407.929583 150.055643 
L 408.342511 149.837528 
L 408.755439 150.058757 
L 409.168367 149.707538 
L 409.581295 150.567798 
L 409.994224 149.324697 
L 410.407152 150.286696 
L 410.82008 150.280947 
L 411.645936 148.874151 
L 412.471793 150.378924 
L 412.884721 151.609319 
L 413.710577 149.262645 
L 414.123506 149.976684 
L 414.536434 150.194649 
L 414.949362 150.80455 
L 415.36229 149.518058 
L 415.775218 150.049412 
L 416.188146 149.790783 
L 416.601075 150.165982 
L 417.014003 149.958689 
L 417.426931 150.079957 
L 417.839859 149.683517 
L 418.252787 149.615007 
L 418.665716 150.663147 
L 419.078644 149.592441 
L 419.491572 151.062217 
L 419.9045 149.824691 
L 420.317428 150.973142 
L 420.730357 149.913368 
L 421.143285 150.658815 
L 421.556213 150.166808 
L 421.969141 148.383265 
L 422.382069 150.611892 
L 422.794997 149.436539 
L 423.207926 149.245526 
L 423.620854 149.253037 
L 424.033782 149.753932 
L 424.44671 151.062441 
L 424.859638 151.300486 
L 425.272567 150.404803 
L 425.685495 149.849004 
L 426.098423 150.853272 
L 426.511351 150.486637 
L 426.924279 148.790753 
L 427.337208 148.926739 
L 427.750136 148.383265 
L 428.163064 148.822889 
L 428.575992 150.427145 
L 428.98892 149.23754 
L 429.401848 148.923215 
L 429.814777 148.432972 
L 430.227705 148.383265 
L 430.640633 150.466228 
L 431.466489 149.168479 
L 431.879418 150.267089 
L 432.292346 150.573454 
L 432.705274 149.169257 
L 433.118202 149.15758 
L 433.53113 148.500299 
L 433.944059 148.474806 
L 434.356987 148.733937 
L 434.769915 149.77043 
L 435.182843 149.285419 
L 435.595771 149.426473 
L 436.008699 148.503372 
L 436.421628 150.348181 
L 436.834556 150.154209 
L 437.247484 149.167317 
L 437.660412 149.011453 
L 438.07334 149.806024 
L 438.486269 149.581269 
L 439.312125 149.54332 
L 439.725053 149.297056 
L 440.137981 147.334562 
L 440.55091 146.038295 
L 440.963838 149.215871 
L 441.376766 149.156787 
L 441.789694 149.381858 
L 442.202622 151.178608 
L 442.61555 151.178608 
L 443.028479 150.508441 
L 443.441407 146.438574 
L 443.854335 149.322834 
L 444.680191 142.607829 
L 445.506048 147.031338 
L 445.918976 144.772151 
L 446.331904 147.059293 
L 446.744832 143.284158 
L 447.157761 142.095034 
L 447.570689 143.827912 
L 447.983617 146.858325 
L 448.396545 148.018025 
L 448.809473 148.616251 
L 449.222401 142.571437 
L 449.63533 139.179922 
L 450.048258 142.374198 
L 450.461186 136.156234 
L 450.874114 138.867974 
L 451.287042 140.80154 
L 451.699971 141.298922 
L 452.112899 130.886904 
L 452.525827 133.413184 
L 452.938755 132.003351 
L 453.351683 135.864869 
L 453.764612 132.658805 
L 454.17754 143.026285 
L 454.590468 140.253103 
L 455.003396 132.938138 
L 455.416324 130.841063 
L 455.829252 137.967189 
L 456.242181 138.903303 
L 456.655109 135.102117 
L 457.068037 124.269738 
L 457.480965 131.312953 
L 457.893893 124.984478 
L 458.306822 123.276981 
L 458.71975 118.756962 
L 459.132678 129.581217 
L 459.545606 116.604078 
L 459.958534 132.614759 
L 460.371463 122.977316 
L 460.784391 138.693088 
L 461.197319 108.201192 
L 461.610247 128.006597 
L 462.023175 120.663802 
L 462.436103 139.066175 
L 462.849032 120.479872 
L 463.26196 125.633914 
L 464.087816 103.858825 
L 464.500744 97.777592 
L 464.913673 103.374587 
L 465.326601 111.833349 
L 465.739529 98.837669 
L 466.152457 107.108304 
L 466.565385 99.434275 
L 466.978314 94.846607 
L 467.391242 101.856743 
L 467.80417 113.814544 
L 468.217098 103.615389 
L 468.630026 102.194949 
L 469.042954 93.381331 
L 469.455883 103.649578 
L 469.868811 95.655569 
L 470.281739 93.598696 
L 470.694667 90.625494 
L 471.107595 95.145831 
L 471.520524 89.641302 
L 471.933452 74.31234 
L 472.34638 73.340314 
L 472.759308 68.92535 
L 473.172236 72.202948 
L 473.585165 73.080004 
L 473.998093 94.521771 
L 474.411021 76.850443 
L 474.823949 81.159079 
L 475.236877 61.511362 
L 475.649805 81.491199 
L 476.062734 64.108632 
L 476.88859 70.630145 
L 477.301518 68.958409 
L 477.714446 63.55547 
L 478.127375 44.156932 
L 478.127375 44.156932 
" clip-path="url(#pe5a4f7aab0)" style="fill: none; stroke: #c0392b; stroke-opacity: 0.9; stroke-width: 1.5; stroke-linecap: square"/>
   </g>
   <g id="text_13">
    <!-- PSI Coincides with Score Collapse (Qwen2.5-1.5B-Deepseek, Science) -->
    <g transform="translate(62.773281 29.767578) scale(0.12 -0.12)">
     <defs>
      <path id="DejaVuSans-53" d="M 3425 4513 
L 3425 3897 
Q 3066 4069 2747 4153 
Q 2428 4238 2131 4238 
Q 1616 4238 1336 4038 
Q 1056 3838 1056 3469 
Q 1056 3159 1242 3001 
Q 1428 2844 1947 2747 
L 2328 2669 
Q 3034 2534 3370 2195 
Q 3706 1856 3706 1288 
Q 3706 609 3251 259 
Q 2797 -91 1919 -91 
Q 1588 -91 1214 -16 
Q 841 59 441 206 
L 441 856 
Q 825 641 1194 531 
Q 1563 422 1919 422 
Q 2459 422 2753 634 
Q 3047 847 3047 1241 
Q 3047 1584 2836 1778 
Q 2625 1972 2144 2069 
L 1759 2144 
Q 1053 2284 737 2584 
Q 422 2884 422 3419 
Q 422 4038 858 4394 
Q 1294 4750 2059 4750 
Q 2388 4750 2728 4690 
Q 3069 4631 3425 4513 
z
" transform="scale(0.015625)"/>
      <path id="DejaVuSans-49" d="M 628 4666 
L 1259 4666 
L 1259 0 
L 628 0 
L 628 4666 
z
" transform="scale(0.015625)"/>
      <path id="DejaVuSans-63" d="M 3122 3366 
L 3122 2828 
Q 2878 2963 2633 3030 
Q 2388 3097 2138 3097 
Q 1578 3097 1268 2742 
Q 959 2388 959 1747 
Q 959 1106 1268 751 
Q 1578 397 2138 397 
Q 2388 397 2633 464 
Q 2878 531 3122 666 
L 3122 134 
Q 2881 22 2623 -34 
Q 2366 -91 2075 -91 
Q 1284 -91 818 406 
Q 353 903 353 1747 
Q 353 2603 823 3093 
Q 1294 3584 2113 3584 
Q 2378 3584 2631 3529 
Q 2884 3475 3122 3366 
z
" transform="scale(0.015625)"/>
      <path id="DejaVuSans-64" d="M 2906 2969 
L 2906 4863 
L 3481 4863 
L 3481 0 
L 2906 0 
L 2906 525 
Q 2725 213 2448 61 
Q 2172 -91 1784 -91 
Q 1150 -91 751 415 
Q 353 922 353 1747 
Q 353 2572 751 3078 
Q 1150 3584 1784 3584 
Q 2172 3584 2448 3432 
Q 2725 3281 2906 2969 
z
M 947 1747 
Q 947 1113 1208 752 
Q 1469 391 1925 391 
Q 2381 391 2643 752 
Q 2906 1113 2906 1747 
Q 2906 2381 2643 2742 
Q 2381 3103 1925 3103 
Q 1469 3103 1208 2742 
Q 947 2381 947 1747 
z
" transform="scale(0.015625)"/>
      <path id="DejaVuSans-77" d="M 269 3500 
L 844 3500 
L 1563 769 
L 2278 3500 
L 2956 3500 
L 3675 769 
L 4391 3500 
L 4966 3500 
L 4050 0 
L 3372 0 
L 2619 2869 
L 1863 0 
L 1184 0 
L 269 3500 
z
" transform="scale(0.015625)"/>
      <path id="DejaVuSans-68" d="M 3513 2113 
L 3513 0 
L 2938 0 
L 2938 2094 
Q 2938 2591 2744 2837 
Q 2550 3084 2163 3084 
Q 1697 3084 1428 2787 
Q 1159 2491 1159 1978 
L 1159 0 
L 581 0 
L 581 4863 
L 1159 4863 
L 1159 2956 
Q 1366 3272 1645 3428 
Q 1925 3584 2291 3584 
Q 2894 3584 3203 3211 
Q 3513 2838 3513 2113 
z
" transform="scale(0.015625)"/>
      <path id="DejaVuSans-6c" d="M 603 4863 
L 1178 4863 
L 1178 0 
L 603 0 
L 603 4863 
z
" transform="scale(0.015625)"/>
      <path id="DejaVuSans-51" d="M 2522 4238 
Q 1834 4238 1429 3725 
Q 1025 3213 1025 2328 
Q 1025 1447 1429 934 
Q 1834 422 2522 422 
Q 3209 422 3611 934 
Q 4013 1447 4013 2328 
Q 4013 3213 3611 3725 
Q 3209 4238 2522 4238 
z
M 3406 84 
L 4238 -825 
L 3475 -825 
L 2784 -78 
Q 2681 -84 2626 -87 
Q 2572 -91 2522 -91 
Q 1538 -91 948 567 
Q 359 1225 359 2328 
Q 359 3434 948 4092 
Q 1538 4750 2522 4750 
Q 3503 4750 4090 4092 
Q 4678 3434 4678 2328 
Q 4678 1516 4351 937 
Q 4025 359 3406 84 
z
" transform="scale(0.015625)"/>
      <path id="DejaVuSans-2e" d="M 684 794 
L 1344 794 
L 1344 0 
L 684 0 
L 684 794 
z
" transform="scale(0.015625)"/>
      <path id="DejaVuSans-42" d="M 1259 2228 
L 1259 519 
L 2272 519 
Q 2781 519 3026 730 
Q 3272 941 3272 1375 
Q 3272 1813 3026 2020 
Q 2781 2228 2272 2228 
L 1259 2228 
z
M 1259 4147 
L 1259 2741 
L 2194 2741 
Q 2656 2741 2882 2914 
Q 3109 3088 3109 3444 
Q 3109 3797 2882 3972 
Q 2656 4147 2194 4147 
L 1259 4147 
z
M 628 4666 
L 2241 4666 
Q 2963 4666 3353 4366 
Q 3744 4066 3744 3513 
Q 3744 3084 3544 2831 
Q 3344 2578 2956 2516 
Q 3422 2416 3680 2098 
Q 3938 1781 3938 1306 
Q 3938 681 3513 340 
Q 3088 0 2303 0 
L 628 0 
L 628 4666 
z
" transform="scale(0.015625)"/>
      <path id="DejaVuSans-44" d="M 1259 4147 
L 1259 519 
L 2022 519 
Q 2988 519 3436 956 
Q 3884 1394 3884 2338 
Q 3884 3275 3436 3711 
Q 2988 4147 2022 4147 
L 1259 4147 
z
M 628 4666 
L 1925 4666 
Q 3281 4666 3915 4102 
Q 4550 3538 4550 2338 
Q 4550 1131 3912 565 
Q 3275 0 1925 0 
L 628 0 
L 628 4666 
z
" transform="scale(0.015625)"/>
      <path id="DejaVuSans-6b" d="M 581 4863 
L 1159 4863 
L 1159 1991 
L 2875 3500 
L 3609 3500 
L 1753 1863 
L 3688 0 
L 2938 0 
L 1159 1709 
L 1159 0 
L 581 0 
L 581 4863 
z
" transform="scale(0.015625)"/>
      <path id="DejaVuSans-2c" d="M 750 794 
L 1409 794 
L 1409 256 
L 897 -744 
L 494 -744 
L 750 256 
L 750 794 
z
" transform="scale(0.015625)"/>
     </defs>
     <use xlink:href="#DejaVuSans-50"/>
     <use xlink:href="#DejaVuSans-53" x="60.302734"/>
     <use xlink:href="#DejaVuSans-49" x="123.779297"/>
     <use xlink:href="#DejaVuSans-20" x="153.271484"/>
     <use xlink:href="#DejaVuSans-43" x="185.058594"/>
     <use xlink:href="#DejaVuSans-6f" x="254.882812"/>
     <use xlink:href="#DejaVuSans-69" x="316.064453"/>
     <use xlink:href="#DejaVuSans-6e" x="343.847656"/>
     <use xlink:href="#DejaVuSans-63" x="407.226562"/>
     <use xlink:href="#DejaVuSans-69" x="462.207031"/>
     <use xlink:href="#DejaVuSans-64" x="489.990234"/>
     <use xlink:href="#DejaVuSans-65" x="553.466797"/>
     <use xlink:href="#DejaVuSans-73" x="614.990234"/>
     <use xlink:href="#DejaVuSans-20" x="667.089844"/>
     <use xlink:href="#DejaVuSans-77" x="698.876953"/>
     <use xlink:href="#DejaVuSans-69" x="780.664062"/>
     <use xlink:href="#DejaVuSans-74" x="808.447266"/>
     <use xlink:href="#DejaVuSans-68" x="847.65625"/>
     <use xlink:href="#DejaVuSans-20" x="911.035156"/>
     <use xlink:href="#DejaVuSans-53" x="942.822266"/>
     <use xlink:href="#DejaVuSans-63" x="1006.298828"/>
     <use xlink:href="#DejaVuSans-6f" x="1061.279297"/>
     <use xlink:href="#DejaVuSans-72" x="1122.460938"/>
     <use xlink:href="#DejaVuSans-65" x="1161.324219"/>
     <use xlink:href="#DejaVuSans-20" x="1222.847656"/>
     <use xlink:href="#DejaVuSans-43" x="1254.634766"/>
     <use xlink:href="#DejaVuSans-6f" x="1324.458984"/>
     <use xlink:href="#DejaVuSans-6c" x="1385.640625"/>
     <use xlink:href="#DejaVuSans-6c" x="1413.423828"/>
     <use xlink:href="#DejaVuSans-61" x="1441.207031"/>
     <use xlink:href="#DejaVuSans-70" x="1502.486328"/>
     <use xlink:href="#DejaVuSans-73" x="1565.962891"/>
     <use xlink:href="#DejaVuSans-65" x="1618.0625"/>
     <use xlink:href="#DejaVuSans-20" x="1679.585938"/>
     <use xlink:href="#DejaVuSans-28" x="1711.373047"/>
     <use xlink:href="#DejaVuSans-51" x="1750.386719"/>
     <use xlink:href="#DejaVuSans-77" x="1829.097656"/>
     <use xlink:href="#DejaVuSans-65" x="1910.884766"/>
     <use xlink:href="#DejaVuSans-6e" x="1972.408203"/>
     <use xlink:href="#DejaVuSans-32" x="2035.787109"/>
     <use xlink:href="#DejaVuSans-2e" x="2099.410156"/>
     <use xlink:href="#DejaVuSans-35" x="2131.197266"/>
     <use xlink:href="#DejaVuSans-2d" x="2194.820312"/>
     <use xlink:href="#DejaVuSans-31" x="2230.904297"/>
     <use xlink:href="#DejaVuSans-2e" x="2294.527344"/>
     <use xlink:href="#DejaVuSans-35" x="2326.314453"/>
     <use xlink:href="#DejaVuSans-42" x="2389.9375"/>
     <use xlink:href="#DejaVuSans-2d" x="2458.541016"/>
     <use xlink:href="#DejaVuSans-44" x="2494.625"/>
     <use xlink:href="#DejaVuSans-65" x="2571.626953"/>
     <use xlink:href="#DejaVuSans-65" x="2633.150391"/>
     <use xlink:href="#DejaVuSans-70" x="2694.673828"/>
     <use xlink:href="#DejaVuSans-73" x="2758.150391"/>
     <use xlink:href="#DejaVuSans-65" x="2810.25"/>
     <use xlink:href="#DejaVuSans-65" x="2871.773438"/>
     <use xlink:href="#DejaVuSans-6b" x="2933.296875"/>
     <use xlink:href="#DejaVuSans-2c" x="2991.207031"/>
     <use xlink:href="#DejaVuSans-20" x="3022.994141"/>
     <use xlink:href="#DejaVuSans-53" x="3054.78125"/>
     <use xlink:href="#DejaVuSans-63" x="3118.257812"/>
     <use xlink:href="#DejaVuSans-69" x="3173.238281"/>
     <use xlink:href="#DejaVuSans-65" x="3201.021484"/>
     <use xlink:href="#DejaVuSans-6e" x="3262.544922"/>
     <use xlink:href="#DejaVuSans-63" x="3325.923828"/>
     <use xlink:href="#DejaVuSans-65" x="3380.904297"/>
     <use xlink:href="#DejaVuSans-29" x="3442.427734"/>
    </g>
   </g>
  </g>
  <g id="axes_2">
   <g id="matplotlib.axis_3">
    <g id="ytick_5">
     <g id="line2d_16">
      <defs>
       <path id="m375d7566c0" d="M 0 0 
L 3.5 0 
" style="stroke: #000000; stroke-width: 0.8"/>
      </defs>
      <g>
       <use xlink:href="#m375d7566c0" x="478.127375" y="161.561308" style="stroke: #000000; stroke-width: 0.8"/>
      </g>
     </g>
     <g id="text_14">
      <!-- 0.0 -->
      <g style="fill: #2c6fbb" transform="translate(485.127375 166.12037) scale(0.12 -0.12)">
       <use xlink:href="#DejaVuSans-30"/>
       <use xlink:href="#DejaVuSans-2e" x="63.623047"/>
       <use xlink:href="#DejaVuSans-30" x="95.410156"/>
      </g>
     </g>
    </g>
    <g id="ytick_6">
     <g id="line2d_17">
      <g>
       <use xlink:href="#m375d7566c0" x="478.127375" y="136.802562" style="stroke: #000000; stroke-width: 0.8"/>
      </g>
     </g>
     <g id="text_15">
      <!-- 0.2 -->
      <g style="fill: #2c6fbb" transform="translate(485.127375 141.361624) scale(0.12 -0.12)">
       <use xlink:href="#DejaVuSans-30"/>
       <use xlink:href="#DejaVuSans-2e" x="63.623047"/>
       <use xlink:href="#DejaVuSans-32" x="95.410156"/>
      </g>
     </g>
    </g>
    <g id="ytick_7">
     <g id="line2d_18">
      <g>
       <use xlink:href="#m375d7566c0" x="478.127375" y="112.043816" style="stroke: #000000; stroke-width: 0.8"/>
      </g>
     </g>
     <g id="text_16">
      <!-- 0.4 -->
      <g style="fill: #2c6fbb" transform="translate(485.127375 116.602878) scale(0.12 -0.12)">
       <use xlink:href="#DejaVuSans-30"/>
       <use xlink:href="#DejaVuSans-2e" x="63.623047"/>
       <use xlink:href="#DejaVuSans-34" x="95.410156"/>
      </g>
     </g>
    </g>
    <g id="ytick_8">
     <g id="line2d_19">
      <g>
       <use xlink:href="#m375d7566c0" x="478.127375" y="87.28507" style="stroke: #000000; stroke-width: 0.8"/>
      </g>
     </g>
     <g id="text_17">
      <!-- 0.6 -->
      <g style="fill: #2c6fbb" transform="translate(485.127375 91.844133) scale(0.12 -0.12)">
       <use xlink:href="#DejaVuSans-30"/>
       <use xlink:href="#DejaVuSans-2e" x="63.623047"/>
       <use xlink:href="#DejaVuSans-36" x="95.410156"/>
      </g>
     </g>
    </g>
    <g id="ytick_9">
     <g id="line2d_20">
      <g>
       <use xlink:href="#m375d7566c0" x="478.127375" y="62.526324" style="stroke: #000000; stroke-width: 0.8"/>
      </g>
     </g>
     <g id="text_18">
      <!-- 0.8 -->
      <g style="fill: #2c6fbb" transform="translate(485.127375 67.085387) scale(0.12 -0.12)">
       <use xlink:href="#DejaVuSans-30"/>
       <use xlink:href="#DejaVuSans-2e" x="63.623047"/>
       <use xlink:href="#DejaVuSans-38" x="95.410156"/>
      </g>
     </g>
    </g>
    <g id="ytick_10">
     <g id="line2d_21">
      <g>
       <use xlink:href="#m375d7566c0" x="478.127375" y="37.767578" style="stroke: #000000; stroke-width: 0.8"/>
      </g>
     </g>
     <g id="text_19">
      <!-- 1.0 -->
      <g style="fill: #2c6fbb" transform="translate(485.127375 42.326641) scale(0.12 -0.12)">
       <use xlink:href="#DejaVuSans-31"/>
       <use xlink:href="#DejaVuSans-2e" x="63.623047"/>
       <use xlink:href="#DejaVuSans-30" x="95.410156"/>
      </g>
     </g>
    </g>
    <g id="text_20">
     <!-- Score -->
     <g style="fill: #2c6fbb" transform="translate(519.32925 116.467256) rotate(-90) scale(0.12 -0.12)">
      <use xlink:href="#DejaVuSans-53"/>
      <use xlink:href="#DejaVuSans-63" x="63.476562"/>
      <use xlink:href="#DejaVuSans-6f" x="118.457031"/>
      <use xlink:href="#DejaVuSans-72" x="179.638672"/>
      <use xlink:href="#DejaVuSans-65" x="218.501953"/>
     </g>
    </g>
   </g>
   <g id="patch_6">
    <path d="M 478.127375 161.561308 
L 478.127375 37.767578 
" style="fill: none; stroke: #2c6fbb; stroke-width: 1.2; stroke-linejoin: miter; stroke-linecap: square"/>
   </g>
   <g id="patch_7">
    <path d="M 65.199187 161.561308 
L 478.127375 161.561308 
" style="fill: none; stroke: #666666; stroke-linejoin: miter; stroke-linecap: square"/>
   </g>
   <g id="line2d_22">
    <path d="M 65.199187 116.703665 
L 65.612116 112.152894 
L 66.025044 110.065028 
L 66.437972 115.614865 
L 66.8509 116.140306 
L 67.263828 116.383849 
L 67.676757 115.044966 
L 68.089685 116.092745 
L 68.502613 115.063373 
L 68.915541 112.304032 
L 69.328469 112.93539 
L 69.741397 117.796138 
L 70.154326 115.985553 
L 70.567254 113.047372 
L 70.980182 118.290963 
L 71.39311 115.198259 
L 71.806038 118.025431 
L 72.218967 117.370052 
L 72.631895 109.782816 
L 73.044823 114.561655 
L 73.457751 112.447104 
L 73.870679 112.246497 
L 74.283608 111.489674 
L 74.696536 112.228948 
L 75.109464 110.104722 
L 75.522392 114.271016 
L 75.93532 112.811861 
L 76.348248 114.63004 
L 76.761177 113.924975 
L 77.174105 113.961749 
L 77.587033 112.039791 
L 77.999961 114.11434 
L 78.412889 113.948533 
L 78.825818 114.105919 
L 79.238746 114.499813 
L 79.651674 111.855875 
L 80.064602 113.340023 
L 80.47753 111.055626 
L 81.303387 113.7596 
L 81.716315 113.544656 
L 82.129243 108.789929 
L 82.542171 113.6901 
L 82.955099 110.432346 
L 83.368028 117.191727 
L 83.780956 109.084649 
L 84.193884 110.789135 
L 84.606812 113.413637 
L 85.01974 107.358618 
L 85.432669 111.251606 
L 85.845597 111.401437 
L 86.258525 107.026046 
L 86.671453 109.375563 
L 87.084381 110.552697 
L 87.49731 110.570032 
L 87.910238 110.937788 
L 88.323166 113.249161 
L 88.736094 111.226624 
L 89.149022 110.808546 
L 89.56195 108.506194 
L 90.387807 112.016379 
L 90.800735 110.071202 
L 91.213663 110.366789 
L 91.626591 110.321127 
L 92.452448 109.014168 
L 92.865376 112.645988 
L 93.278304 113.922054 
L 93.691232 107.292446 
L 94.104161 107.955939 
L 94.517089 109.677347 
L 95.342945 108.05647 
L 95.755873 106.338318 
L 96.168801 106.71215 
L 96.58173 107.539325 
L 96.994658 106.101003 
L 97.407586 109.792578 
L 97.820514 107.840073 
L 98.233442 103.365311 
L 98.646371 108.703677 
L 99.059299 100.787297 
L 99.472227 101.847168 
L 99.885155 108.500393 
L 100.298083 106.031136 
L 100.711012 105.053247 
L 101.12394 104.401764 
L 101.536868 105.827427 
L 101.949796 98.946163 
L 102.362724 104.648907 
L 102.775652 104.80269 
L 103.188581 103.535106 
L 103.601509 103.175749 
L 104.014437 101.079 
L 104.427365 99.851931 
L 104.840293 102.126339 
L 105.253222 101.851097 
L 105.66615 101.158113 
L 106.079078 100.984413 
L 106.492006 102.466384 
L 106.904934 99.217945 
L 107.317863 99.441309 
L 107.730791 101.773223 
L 108.143719 102.870878 
L 108.556647 100.804585 
L 108.969575 101.691466 
L 109.382503 101.168849 
L 109.795432 97.000885 
L 110.20836 99.908662 
L 110.621288 98.602787 
L 111.034216 98.796028 
L 111.447144 94.847603 
L 111.860073 100.72357 
L 112.273001 99.500517 
L 112.685929 98.633541 
L 113.098857 99.133854 
L 113.511785 100.006867 
L 113.924714 97.526762 
L 114.337642 99.11957 
L 114.75057 101.290018 
L 115.163498 98.772835 
L 115.576426 97.905827 
L 115.989354 95.080358 
L 116.402283 96.968586 
L 116.815211 98.050815 
L 117.228139 94.518798 
L 117.641067 96.943251 
L 118.053995 98.301759 
L 118.466924 94.757611 
L 118.879852 97.196088 
L 119.29278 93.254744 
L 119.705708 97.911255 
L 120.118636 93.449074 
L 120.531565 94.491335 
L 120.944493 93.900033 
L 121.357421 95.31834 
L 122.183277 92.764735 
L 122.596205 98.288172 
L 123.009134 90.023285 
L 123.422062 93.218407 
L 123.83499 93.965455 
L 124.247918 89.882134 
L 124.660846 94.991679 
L 125.073775 94.477665 
L 125.486703 92.601629 
L 125.899631 89.46446 
L 126.312559 92.329699 
L 126.725487 92.800962 
L 127.138416 93.064503 
L 127.551344 92.966516 
L 127.964272 92.130531 
L 128.3772 93.445873 
L 128.790128 91.843198 
L 129.203056 92.081597 
L 129.615985 92.568588 
L 130.028913 91.043953 
L 130.441841 92.649873 
L 131.267697 86.188111 
L 131.680626 89.514584 
L 132.093554 89.858858 
L 132.506482 95.039916 
L 132.91941 87.640365 
L 133.332338 93.416915 
L 133.745267 91.122248 
L 134.158195 92.061938 
L 134.571123 90.867763 
L 134.984051 90.45993 
L 135.396979 87.203978 
L 135.809907 87.150676 
L 136.222836 87.323766 
L 136.635764 86.83098 
L 137.048692 89.097828 
L 137.46162 89.220343 
L 137.874548 85.210696 
L 138.287477 88.367209 
L 138.700405 87.019981 
L 139.113333 83.574084 
L 139.526261 90.719444 
L 139.939189 83.383273 
L 140.352117 85.587146 
L 140.765046 85.852916 
L 141.177974 86.733746 
L 141.590902 88.742164 
L 142.00383 84.753877 
L 142.416758 87.58748 
L 143.242615 86.408451 
L 143.655543 82.852461 
L 144.068471 85.824786 
L 144.481399 83.131924 
L 144.894328 84.519171 
L 145.720184 88.397333 
L 146.133112 83.93771 
L 146.54604 86.588058 
L 146.958968 80.039592 
L 147.371897 86.55705 
L 147.784825 85.464439 
L 148.197753 83.526123 
L 148.610681 83.021582 
L 149.023609 83.656662 
L 149.436538 85.167105 
L 149.849466 82.141056 
L 150.262394 82.214348 
L 150.675322 83.023949 
L 151.08825 85.739738 
L 151.501179 79.761163 
L 151.914107 82.415116 
L 152.327035 80.79494 
L 152.739963 82.15695 
L 153.152891 82.873221 
L 153.565819 80.516291 
L 153.978748 81.968697 
L 154.391676 81.176289 
L 154.804604 82.950636 
L 155.217532 78.756246 
L 155.63046 81.250957 
L 156.043389 82.67741 
L 156.456317 80.227004 
L 156.869245 82.113874 
L 157.282173 77.362759 
L 157.695101 76.820446 
L 158.10803 84.586724 
L 158.520958 82.296125 
L 158.933886 82.219908 
L 159.346814 81.654068 
L 159.759742 79.50942 
L 160.17267 79.468948 
L 160.585599 79.296805 
L 160.998527 81.820551 
L 161.411455 76.243404 
L 161.824383 81.460173 
L 162.237311 77.795414 
L 162.65024 80.925893 
L 163.063168 80.036995 
L 163.476096 77.498238 
L 163.889024 77.320305 
L 164.301952 77.988884 
L 164.714881 79.50315 
L 165.127809 80.426903 
L 165.540737 79.717116 
L 166.366593 81.258276 
L 167.19245 75.528439 
L 167.605378 81.318159 
L 168.018306 79.081169 
L 168.431234 78.461928 
L 168.844162 78.245249 
L 169.257091 74.319363 
L 169.670019 78.054661 
L 170.082947 80.17197 
L 170.495875 78.891646 
L 170.908803 76.427336 
L 171.321732 76.319592 
L 172.147588 79.214742 
L 172.560516 77.021135 
L 172.973444 77.226186 
L 173.386372 77.665318 
L 173.799301 76.249842 
L 174.212229 77.604987 
L 174.625157 81.554773 
L 175.451013 72.238617 
L 175.863942 77.32671 
L 176.27687 78.571324 
L 176.689798 77.132227 
L 177.102726 78.304394 
L 177.515654 77.789883 
L 177.928583 76.482252 
L 178.341511 78.919909 
L 178.754439 79.726251 
L 179.167367 74.998461 
L 179.580295 77.001725 
L 179.993223 74.709674 
L 180.406152 79.80633 
L 180.81908 76.914192 
L 181.232008 75.176234 
L 182.057864 78.377003 
L 182.470793 75.606536 
L 182.883721 74.820615 
L 183.296649 75.958849 
L 183.709577 79.352263 
L 184.122505 75.674345 
L 184.535434 75.643021 
L 184.948362 78.027884 
L 185.36129 78.855478 
L 185.774218 74.178613 
L 186.187146 77.322453 
L 186.600074 77.107893 
L 187.013003 77.67967 
L 187.425931 77.560481 
L 187.838859 76.772389 
L 188.251787 70.595456 
L 188.664715 74.785795 
L 189.077644 76.40936 
L 189.490572 79.694467 
L 189.9035 74.16981 
L 190.316428 73.67481 
L 190.729356 71.926915 
L 191.142285 76.121826 
L 191.555213 74.663911 
L 191.968141 76.659492 
L 192.381069 71.72925 
L 192.793997 74.150541 
L 193.206925 74.812176 
L 193.619854 74.73196 
L 194.032782 77.233771 
L 194.44571 73.922216 
L 194.858638 76.901445 
L 195.271566 72.584673 
L 195.684495 72.912186 
L 196.097423 75.165172 
L 196.510351 73.793574 
L 196.923279 75.418994 
L 197.336207 73.548415 
L 197.749136 76.886194 
L 198.162064 74.348594 
L 198.574992 74.366397 
L 198.98792 73.820994 
L 199.400848 71.023547 
L 199.813776 70.972321 
L 200.226705 74.096153 
L 200.639633 72.644309 
L 201.052561 74.098235 
L 201.465489 79.424549 
L 202.291346 72.39433 
L 202.704274 75.205824 
L 203.117202 69.590672 
L 203.53013 74.420603 
L 203.943058 71.506928 
L 204.355986 71.472949 
L 204.768915 73.783169 
L 205.181843 69.129648 
L 206.007699 72.930508 
L 206.420627 71.716142 
L 206.833556 73.216892 
L 207.246484 76.750379 
L 207.659412 71.099801 
L 208.07234 70.196979 
L 208.485268 74.063785 
L 209.311125 70.324264 
L 209.724053 71.97488 
L 210.136981 76.370288 
L 210.549909 72.040334 
L 210.962837 70.564908 
L 211.375766 71.003413 
L 211.788694 72.242953 
L 212.201622 74.101173 
L 212.61455 72.428225 
L 213.027478 72.565295 
L 213.440407 74.085825 
L 213.853335 74.83373 
L 214.266263 67.433232 
L 214.679191 72.406596 
L 215.092119 71.482573 
L 215.505048 68.520785 
L 215.917976 71.15245 
L 216.330904 75.839709 
L 216.743832 68.943547 
L 217.15676 71.90427 
L 217.569688 70.403558 
L 217.982617 74.080869 
L 218.395545 72.014874 
L 218.808473 74.870005 
L 219.221401 73.110882 
L 219.634329 71.948182 
L 220.047258 74.383223 
L 220.460186 71.910901 
L 220.873114 65.982554 
L 221.69897 71.502411 
L 222.111899 72.895725 
L 222.524827 70.01603 
L 222.937755 70.369641 
L 223.350683 69.712411 
L 223.763611 69.422459 
L 224.176539 68.059133 
L 224.589468 68.787778 
L 225.002396 71.258494 
L 225.415324 69.474059 
L 225.828252 70.701477 
L 226.24118 70.896348 
L 226.654109 73.719459 
L 227.067037 66.97019 
L 227.479965 71.55423 
L 227.892893 72.369712 
L 228.71875 67.467828 
L 229.131678 68.080685 
L 229.544606 73.398766 
L 229.957534 71.217167 
L 230.370462 71.691335 
L 230.78339 73.447606 
L 231.196319 69.654904 
L 231.609247 71.737498 
L 232.022175 71.065049 
L 232.435103 67.336207 
L 232.848031 69.69697 
L 233.26096 68.864373 
L 233.673888 71.592589 
L 234.086816 70.201355 
L 234.499744 72.046502 
L 234.912672 70.733046 
L 235.325601 67.78533 
L 235.738529 70.030472 
L 236.151457 69.902756 
L 236.977313 70.330262 
L 237.80317 67.587741 
L 238.216098 68.473405 
L 238.629026 67.483023 
L 239.454882 72.427032 
L 239.867811 70.180089 
L 240.280739 65.30702 
L 240.693667 68.448819 
L 241.106595 67.262876 
L 241.519523 64.988143 
L 241.932452 68.61695 
L 242.34538 69.411914 
L 242.758308 72.468647 
L 243.171236 70.468162 
L 243.584164 67.22137 
L 243.997092 70.039344 
L 245.235877 67.311173 
L 245.648805 71.478044 
L 246.061733 68.999722 
L 246.474662 67.517838 
L 246.88759 68.662046 
L 247.713446 65.883155 
L 248.126374 69.141443 
L 248.539303 69.882956 
L 248.952231 68.87371 
L 249.365159 69.017265 
L 249.778087 68.82299 
L 250.191015 66.581222 
L 250.603943 68.141499 
L 251.016872 65.580429 
L 251.4298 70.734469 
L 251.842728 65.912678 
L 252.255656 72.322176 
L 252.668584 65.980265 
L 253.081513 64.278128 
L 253.494441 67.561133 
L 253.907369 65.194354 
L 254.320297 69.411024 
L 254.733225 71.135095 
L 255.146154 69.055436 
L 255.559082 65.348658 
L 255.97201 66.289073 
L 256.384938 65.468837 
L 256.797866 66.888938 
L 257.210794 67.424446 
L 257.623723 69.685068 
L 258.036651 69.868522 
L 258.449579 68.109658 
L 258.862507 68.450125 
L 259.275435 66.334262 
L 259.688364 67.361251 
L 260.101292 67.88377 
L 260.51422 66.273867 
L 260.927148 65.137734 
L 261.340076 63.645499 
L 261.753005 63.206877 
L 262.578861 63.961017 
L 262.991789 67.417021 
L 263.817645 68.267405 
L 264.230574 62.442202 
L 264.643502 67.403321 
L 265.05643 68.659182 
L 265.469358 65.831941 
L 265.882286 68.220855 
L 266.295215 66.373847 
L 266.708143 62.123261 
L 267.121071 64.316106 
L 267.533999 67.459805 
L 267.946927 67.472923 
L 268.359856 66.355458 
L 268.772784 68.564408 
L 270.011568 64.442716 
L 270.424496 63.975994 
L 270.837425 66.931274 
L 271.250353 61.770813 
L 271.663281 66.304248 
L 272.076209 61.878937 
L 272.489137 61.978827 
L 272.902066 65.625923 
L 273.314994 64.659585 
L 273.727922 66.578981 
L 274.14085 67.527042 
L 274.966706 63.914591 
L 275.379635 66.812365 
L 275.792563 67.588459 
L 276.205491 67.201246 
L 276.618419 67.65394 
L 277.031347 66.507098 
L 277.444276 64.687195 
L 277.857204 66.205549 
L 278.270132 65.62629 
L 278.68306 67.674084 
L 279.095988 64.024532 
L 279.508917 64.031128 
L 279.921845 66.357187 
L 280.334773 65.470209 
L 281.160629 62.318021 
L 281.573557 63.288547 
L 281.986486 64.948386 
L 282.399414 63.804052 
L 282.812342 65.68096 
L 283.22527 66.218252 
L 283.638198 66.274728 
L 284.051127 63.463507 
L 284.464055 66.690837 
L 284.876983 62.751429 
L 285.702839 65.169278 
L 286.115768 66.71667 
L 286.941624 64.652392 
L 287.354552 65.70211 
L 287.76748 62.82006 
L 288.180408 62.255823 
L 289.006265 66.641514 
L 289.419193 67.479976 
L 289.832121 62.40299 
L 290.657978 65.559528 
L 291.070906 65.036876 
L 291.483834 62.695872 
L 291.896762 67.05654 
L 292.722619 64.908133 
L 293.135547 64.945104 
L 293.548475 70.278784 
L 293.961403 66.330991 
L 294.374331 65.986206 
L 294.787259 66.586117 
L 295.200188 63.094351 
L 295.613116 66.931934 
L 296.026044 64.604234 
L 296.438972 65.833549 
L 296.8519 65.564326 
L 297.264829 65.621655 
L 298.090685 60.460012 
L 298.503613 63.731086 
L 298.916541 63.930924 
L 299.742398 63.78322 
L 300.155326 65.03228 
L 300.568254 63.672242 
L 300.981182 64.483353 
L 301.39411 67.198385 
L 301.807039 65.196588 
L 302.219967 65.598328 
L 302.632895 63.370225 
L 303.458751 67.643914 
L 303.87168 62.423273 
L 304.284608 62.895483 
L 304.697536 63.59242 
L 305.110464 59.496394 
L 305.523392 62.418143 
L 305.936321 64.261757 
L 306.762177 63.17235 
L 307.175105 65.45847 
L 307.588033 63.890712 
L 308.000961 65.378979 
L 308.41389 64.815982 
L 308.826818 61.671362 
L 309.239746 62.986848 
L 309.652674 63.587671 
L 310.065602 62.689957 
L 310.478531 62.977238 
L 310.891459 62.786558 
L 311.304387 64.898524 
L 311.717315 63.942962 
L 312.130243 60.954736 
L 312.543172 65.325202 
L 312.9561 62.680702 
L 313.369028 64.813624 
L 313.781956 61.239689 
L 314.194884 60.354569 
L 314.607812 59.944201 
L 315.020741 65.011743 
L 315.433669 62.449966 
L 315.846597 61.038072 
L 316.672453 66.437854 
L 317.085382 63.282125 
L 317.49831 65.120132 
L 317.911238 62.922508 
L 318.324166 64.389547 
L 318.737094 58.853598 
L 319.150023 60.895376 
L 319.562951 64.615993 
L 319.975879 62.654098 
L 320.388807 64.675745 
L 320.801735 63.193716 
L 321.214663 63.046973 
L 321.627592 63.279533 
L 322.04052 60.526577 
L 322.453448 59.2187 
L 322.866376 59.405906 
L 323.279304 62.041156 
L 323.692233 61.593793 
L 324.105161 64.325186 
L 324.518089 62.501661 
L 324.931017 62.730698 
L 325.343945 62.534059 
L 325.756874 64.301813 
L 326.169802 66.869354 
L 326.58273 59.065959 
L 326.995658 63.729558 
L 327.408586 64.689568 
L 327.821514 61.554601 
L 328.234443 65.117235 
L 328.647371 62.630393 
L 329.060299 63.855744 
L 329.473227 67.670912 
L 329.886155 59.379239 
L 330.712012 60.214202 
L 331.537868 64.35272 
L 332.363725 62.916873 
L 332.776653 66.250384 
L 333.189581 61.052718 
L 333.602509 66.461129 
L 334.428365 61.600339 
L 334.841294 62.678584 
L 335.254222 62.282797 
L 335.66715 59.542772 
L 336.080078 62.412014 
L 336.493006 63.119731 
L 336.905935 63.377702 
L 337.318863 63.312316 
L 337.731791 62.994677 
L 338.144719 61.483861 
L 338.557647 60.983568 
L 338.970576 59.860104 
L 339.383504 61.812993 
L 339.796432 60.887905 
L 340.20936 67.264796 
L 340.622288 60.942197 
L 341.035216 59.278323 
L 341.448145 58.860711 
L 341.861073 61.120838 
L 342.274001 60.265214 
L 342.686929 61.305485 
L 343.099857 60.107517 
L 343.512786 62.27445 
L 343.925714 67.175859 
L 344.338642 59.76271 
L 344.75157 58.455915 
L 345.164498 61.079082 
L 345.577426 67.055335 
L 346.403283 59.008272 
L 346.816211 62.100668 
L 347.229139 60.242992 
L 347.642067 61.10042 
L 348.054996 60.781456 
L 348.467924 62.199029 
L 348.880852 63.201144 
L 349.29378 59.167408 
L 349.706708 61.036651 
L 350.119637 59.615673 
L 350.532565 61.836301 
L 350.945493 60.258685 
L 351.358421 60.378864 
L 351.771349 60.382629 
L 352.184277 59.570344 
L 352.597206 60.341501 
L 353.010134 56.388351 
L 353.83599 62.364911 
L 354.248918 59.637526 
L 354.661847 61.118375 
L 355.487703 61.535755 
L 355.900631 58.288092 
L 356.313559 62.256078 
L 356.726488 59.38428 
L 357.139416 59.479755 
L 357.552344 57.136364 
L 357.965272 61.512882 
L 358.3782 60.708367 
L 358.791128 60.393438 
L 359.204057 58.988801 
L 359.616985 59.888371 
L 360.029913 61.900672 
L 360.442841 61.464875 
L 360.855769 58.829139 
L 361.268698 60.418561 
L 361.681626 58.81365 
L 362.094554 61.659746 
L 362.507482 60.63616 
L 362.92041 63.040172 
L 363.333339 62.358105 
L 363.746267 57.780007 
L 364.159195 61.227646 
L 364.572123 60.105253 
L 364.985051 61.563662 
L 365.397979 56.464183 
L 365.810908 61.319169 
L 366.223836 61.331125 
L 366.636764 59.45878 
L 367.049692 63.442677 
L 367.46262 63.850056 
L 367.875549 60.409074 
L 368.288477 61.138189 
L 368.701405 59.434041 
L 369.114333 59.131007 
L 369.527261 60.023266 
L 369.94019 60.351698 
L 370.353118 57.419635 
L 371.178974 59.975681 
L 371.591902 62.648208 
L 372.00483 61.670856 
L 372.417759 60.225732 
L 372.830687 60.251562 
L 373.243615 57.042945 
L 373.656543 61.981917 
L 374.069471 61.153803 
L 374.4824 57.268759 
L 374.895328 57.653601 
L 375.308256 55.709039 
L 375.721184 60.91314 
L 376.134112 60.013742 
L 376.547041 61.384343 
L 376.959969 57.247719 
L 377.372897 56.918184 
L 377.785825 61.024817 
L 378.198753 55.208635 
L 378.611681 60.066801 
L 379.02461 59.664473 
L 379.437538 61.774148 
L 379.850466 59.254715 
L 380.263394 59.163127 
L 380.676322 55.614814 
L 381.089251 59.692576 
L 381.502179 60.559299 
L 381.915107 56.735095 
L 382.328035 61.10615 
L 382.740963 62.509571 
L 383.153892 64.921863 
L 383.979748 59.474684 
L 384.392676 60.864684 
L 385.218532 62.403386 
L 385.631461 60.037253 
L 386.044389 61.777581 
L 386.457317 55.921445 
L 386.870245 63.144645 
L 387.283173 58.482066 
L 387.696102 60.199274 
L 388.10903 58.180933 
L 388.521958 59.059003 
L 388.934886 60.556671 
L 389.347814 60.036944 
L 389.760743 55.615112 
L 390.173671 62.883893 
L 390.586599 65.353933 
L 390.999527 61.740859 
L 391.412455 59.259471 
L 391.825383 63.299066 
L 392.238312 60.34413 
L 392.65124 61.698176 
L 393.064168 59.92163 
L 393.477096 59.47789 
L 393.890024 54.763103 
L 394.302953 59.543826 
L 394.715881 59.738303 
L 395.128809 60.880379 
L 395.541737 57.986818 
L 395.954665 57.986818 
L 396.367594 60.404664 
L 396.780522 59.951318 
L 397.19345 63.729203 
L 397.606378 55.599195 
L 398.019306 60.918456 
L 398.432234 60.132656 
L 398.845163 56.203656 
L 399.258091 56.596556 
L 399.671019 57.201018 
L 400.083947 57.231241 
L 400.496875 58.289049 
L 400.909804 64.726564 
L 401.322732 57.593918 
L 401.73566 54.904064 
L 402.148588 55.35741 
L 402.561516 57.986818 
L 402.974445 58.984179 
L 403.387373 60.85801 
L 403.800301 61.099795 
L 404.213229 60.344218 
L 404.626157 57.533472 
L 405.039085 56.989456 
L 405.452014 59.044626 
L 405.864942 57.32191 
L 406.27787 58.349495 
L 406.690798 57.775256 
L 407.103726 57.71481 
L 407.516655 53.967148 
L 407.929583 58.863287 
L 408.342511 56.14321 
L 408.755439 59.377079 
L 409.168367 61.190464 
L 409.581295 55.387633 
L 409.994224 57.291687 
L 410.407152 56.022318 
L 410.82008 53.181348 
L 411.233008 56.92901 
L 411.645936 62.459833 
L 412.058865 61.583364 
L 412.471793 55.810756 
L 412.884721 54.360048 
L 413.297649 62.550503 
L 413.710577 57.684587 
L 414.123506 57.563695 
L 414.536434 58.198379 
L 414.949362 60.46511 
L 415.36229 60.313995 
L 416.601075 50.310156 
L 417.014003 55.780533 
L 417.839859 60.737118 
L 418.252787 60.646449 
L 418.665716 59.497972 
L 419.078644 54.934287 
L 419.491572 57.593918 
L 419.9045 58.984179 
L 420.317428 58.017041 
L 420.730357 53.816033 
L 421.143285 57.71481 
L 421.556213 59.497972 
L 421.969141 59.951318 
L 422.382069 55.840979 
L 422.794997 57.473026 
L 423.207926 55.206295 
L 423.620854 57.805479 
L 424.033782 57.805479 
L 424.44671 55.931649 
L 424.859638 52.969787 
L 425.272567 55.478302 
L 425.685495 56.777895 
L 426.098423 59.618864 
L 426.511351 59.165518 
L 426.924279 55.478302 
L 427.337208 56.777895 
L 427.750136 55.629418 
L 428.163064 58.349495 
L 428.575992 57.775256 
L 428.98892 52.697779 
L 429.401848 60.011764 
L 429.814777 56.657002 
L 430.227705 59.769979 
L 430.640633 56.868564 
L 431.053561 59.649087 
L 431.466489 59.135295 
L 431.879418 60.16288 
L 432.292346 60.16288 
L 432.705274 59.014403 
L 433.118202 58.621503 
L 433.53113 57.140572 
L 433.944059 60.041987 
L 434.356987 59.225964 
L 434.769915 59.739756 
L 435.182843 56.566333 
L 435.595771 58.89351 
L 436.008699 57.201018 
L 436.421628 58.409941 
L 436.834556 61.099795 
L 437.247484 62.006487 
L 437.660412 61.34158 
L 438.07334 55.417856 
L 438.486269 62.006487 
L 438.899197 60.029218 
L 439.312125 62.154531 
L 439.725053 52.737348 
L 440.55091 68.429271 
L 440.963838 61.864339 
L 441.376766 65.704868 
L 441.789694 65.525503 
L 442.202622 66.011001 
L 442.61555 67.814255 
L 443.028479 62.715813 
L 443.441407 62.788445 
L 443.854335 67.634807 
L 444.267263 69.801733 
L 444.680191 60.819807 
L 445.09312 69.207997 
L 445.918976 80.242046 
L 446.331904 66.175402 
L 446.744832 63.528006 
L 447.157761 69.349973 
L 447.570689 60.604443 
L 447.983617 71.114132 
L 448.396545 71.602274 
L 448.809473 73.980557 
L 449.222401 79.133776 
L 449.63533 78.923445 
L 450.048258 72.533576 
L 450.461186 60.75513 
L 450.874114 67.875445 
L 451.287042 68.026731 
L 451.699971 81.337036 
L 452.112899 66.916769 
L 452.525827 81.32672 
L 452.938755 73.603304 
L 453.351683 71.213531 
L 453.764612 67.731122 
L 454.590468 88.024086 
L 455.003396 82.796125 
L 455.416324 83.312465 
L 455.829252 73.298282 
L 456.242181 90.174641 
L 456.655109 83.497477 
L 457.068037 86.705501 
L 457.480965 85.57009 
L 457.893893 87.434978 
L 458.306822 72.012765 
L 458.71975 80.122906 
L 459.132678 74.575791 
L 459.545606 79.869567 
L 459.958534 95.272305 
L 460.371463 75.505645 
L 460.784391 80.613772 
L 461.197319 81.233037 
L 461.610247 81.056134 
L 462.023175 74.641981 
L 462.436103 80.903116 
L 462.849032 88.91529 
L 463.26196 84.391733 
L 463.674888 83.532295 
L 464.087816 93.755465 
L 464.500744 81.806498 
L 465.326601 74.407333 
L 465.739529 73.010681 
L 466.152457 72.429823 
L 466.565385 83.805906 
L 466.978314 83.509748 
L 467.391242 73.19346 
L 467.80417 73.313042 
L 468.217098 95.043542 
L 468.630026 87.043674 
L 469.042954 101.01512 
L 469.455883 109.786606 
L 469.868811 115.852344 
L 470.281739 106.366105 
L 470.694667 109.402832 
L 471.107595 93.89023 
L 471.520524 83.947786 
L 471.933452 86.768049 
L 472.34638 101.331423 
L 472.759308 77.265758 
L 473.172236 94.396247 
L 473.585165 93.182173 
L 473.998093 90.612321 
L 474.411021 84.561851 
L 474.823949 108.895635 
L 475.236877 102.446644 
L 475.649805 115.862551 
L 476.062734 141.22712 
L 476.475662 146.70606 
L 476.88859 137.53287 
L 477.301518 138.49878 
L 478.127375 109.554213 
L 478.127375 109.554213 
" clip-path="url(#pe5a4f7aab0)" style="fill: none; stroke: #2c6fbb; stroke-width: 1.1; stroke-linecap: square"/>
   </g>
  </g>
 </g>
 <defs>
  <clipPath id="pe5a4f7aab0">
   <rect x="65.199187" y="37.767578" width="412.928187" height="123.793729"/>
  </clipPath>
 </defs>
</svg>
